<svg xmlns="http://www.w3.org/2000/svg" xmlns:xlink="http://www.w3.org/1999/xlink" width="298.471" height="202.2" viewBox="0 0 298.471 202.2"><defs><style>.a,.b{fill:#c96ae4;}.a,.k,.u{opacity:0.1;}.c{fill:#444053;}.d,.k{fill:#3f3d56;}.e{fill:#fff;}.f{fill:#fa5959;}.f,.g,.h{opacity:0.8;}.g{fill:#fed253;}.h{fill:#8ccf4d;}.i{opacity:0.3;}.j{fill:none;stroke:#3f3d56;stroke-miterlimit:10;}.l{fill:url(#a);}.m{fill:#7cfcff;}.n{fill:#ffffa5;}.o{fill:url(#d);}.p{fill:#ff69b4;}.q{fill:url(#l);}.r{fill:#303d5c;}.s{fill:#ee8e9e;}.t{opacity:0.05;}</style><linearGradient id="a" x1="0.5" y1="1" x2="0.5" gradientUnits="objectBoundingBox"><stop offset="0" stop-color="gray" stop-opacity="0.251"/><stop offset="0.54" stop-color="gray" stop-opacity="0.122"/><stop offset="1" stop-color="gray" stop-opacity="0.102"/></linearGradient><linearGradient id="d" x1="0.5" y1="1" x2="0.5" y2="0" xlink:href="#a"/><linearGradient id="l" x1="0" y1="0.5" x2="1" y2="0.5" xlink:href="#a"/></defs><g transform="translate(0.002 -0.004)"><path class="a" d="M193.7,96.033c-18.161-.029-35.658-5.728-52.4-12.069S107.949,70.55,90.117,67.517c-11.483-1.95-24.5-1.819-33.448,5.108-8.6,6.666-11.068,17.728-12.247,27.96-.885,7.691-1.281,15.77,2.132,22.818,2.372,4.895,6.417,8.933,9.28,13.6,9.961,16.236,4.05,36.9-5.543,53.459-4.5,7.752-9.776,15.193-13.171,23.406s-4.77,17.533-1.263,25.659c3.481,8.058,11.31,13.933,19.685,17.942,17.038,8.171,36.838,9.968,56.108,10.7,42.663,1.618,85.391-1.265,128.006-4.165,15.77-1.07,31.611-2.151,47.05-5.348,8.573-1.774,17.4-4.418,23.461-10.258,7.7-7.412,9.243-19.55,3.6-28.292-9.463-14.679-34.3-17.515-41.107-33.377-3.75-8.732-.566-18.714,4.139-27.112,10.1-18,27.516-34.1,27.754-54.268.162-13.854-8.959-27.394-22.54-33.456-14.238-6.363-33.612-4.8-43.537,6.927C228.259,90.891,209.734,96.059,193.7,96.033Z" transform="translate(-33.81 -66.43)"/><path class="b" d="M976.118,689.449s-3.987-2.631-7.938-.759c0,0,1.217,2.345,6.219,2.122Z" transform="translate(-733.947 -533.031)"/><path class="b" d="M988.663,692.87s1.213,4.62-1.826,7.763c0,0-1.83-1.908,0-6.573Z" transform="translate(-746.002 -536.31)"/><path class="b" d="M990.4,673.176s-.3-3.932-9.164-2.628c0,0-.042,2.537,3.072,3.737S988.85,674.473,990.4,673.176Z" transform="translate(-742.77 -511.8)"/><path class="b" d="M1005.76,679.11s3.753,1.207.409,9.528c0,0-2.475-.555-2.92-3.864S1004.135,680.317,1005.76,679.11Z" transform="translate(-757.581 -519.102)"/><path class="b" d="M1008.8,649.75s.506-6.465-8.561-5.8c0,0-.649,5.839,6.959,7.354Z" transform="translate(-755.598 -492.767)"/><path class="b" d="M1023.666,627.875s-1.246-7.325-10.306-5.142c0,0-.036,6.336,8.824,6.89Z" transform="translate(-764.47 -476.823)"/><path class="b" d="M1035.589,604.927s-2.079-7.137-11.059-5c0,0,2.135,6.417,10.462,6.319Z" transform="translate(-772.017 -459.912)"/><path class="b" d="M1049.146,581.789s-2.034-7.406-10.706-5.19c0,0,2.894,7.036,10.135,6.446Z" transform="translate(-781.414 -442.705)"/><path class="b" d="M1059.638,556.6s-1.564-9.044-9.638-7.053c0,0,2.349,8.24,9.051,8.37Z" transform="translate(-789.224 -423.049)"/><path class="b" d="M1066.507,531.3s-1.875-9.132-10.057-6.488c0,0,3.208,8.626,9.479,7.734Z" transform="translate(-793.582 -404.592)"/><path class="b" d="M1072.874,503.032s-2.981-9.129-9.3-8.882c0,0,3.05,9.645,8.759,10.705Z" transform="translate(-798.392 -382.576)"/><path class="b" d="M1077.829,476.647s-3.244-10.991-8.389-10.144c0,0,2.245,8.4,8.207,11.854Z" transform="translate(-802.358 -362.237)"/><path class="b" d="M1080.11,449.755s-3.04-9.161-8.11-9.525c0,0,2.07,9.012,8.006,11.9Z" transform="translate(-804.087 -342.844)"/><path class="b" d="M1084.067,423.735s-3.792-9.171-7.137-9.375c0,0,1.645,9.025,6.813,10.881Z" transform="translate(-807.418 -323.618)"/><path class="b" d="M1088.384,396.283s-2.342-9.972-5.684-10.783c0,0,.461,8.143,5.35,11.526Z" transform="translate(-811.316 -302.34)"/><path class="b" d="M1093.348,367.605s-2.453-7.935-5.168-9.145c0,0,.538,9.356,4.542,11.088Z" transform="translate(-815.018 -282.313)"/><path class="b" d="M1103.1,336.435l.5-13.995s-5.067,10.559-.869,16.464Z" transform="translate(-823.72 -256.061)"/><path class="b" d="M1115.317,300.24s3.653-10.222,4.542-10.79c0,0-7.169,6.628-6.469,15.16Z" transform="translate(-832.017 -231.544)"/><path class="b" d="M1024.36,661.747s6.43-.843,6.235,8.246c0,0-5.81.944-7.7-6.569Z" transform="translate(-770.909 -506.066)"/><path class="b" d="M1042.973,638.68s7.432-.026,6.813,9.278c0,0-6.235,1.113-8.3-7.523Z" transform="translate(-783.475 -489.199)"/><path class="b" d="M1057.6,616.744s6.745-3.163,11.062,5c0,0-6.232,2.638-11.656-3.682Z" transform="translate(-793.96 -472.093)"/><path class="b" d="M1070.721,592.2s6.9-3.367,10.958,4.61c0,0-7.192,2.478-11.53-3.348Z" transform="translate(-802.837 -453.864)"/><path class="b" d="M1078.8,566.65s6.647-6.349,11.951.075c0,0-6.79,5.223-12.259,1.34Z" transform="translate(-808.472 -433.441)"/><path class="b" d="M1085.8,539.315s6.689-6.488,11.951.3c0,0-7.507,5.33-12.188,1.064Z" transform="translate(-813.248 -413.294)"/><path class="b" d="M1090.15,507.076s5.152-8.11,11.215-6.3c0,0-5.343,8.587-11.156,8.2Z" transform="translate(-816.349 -387.028)"/><path class="b" d="M1094.553,479.71s5.19-10.216,10.1-8.435c0,0-3.74,7.851-10.232,10.157Z" transform="translate(-819.234 -365.481)"/><path class="b" d="M1094.856,453.127s5.336-8.039,10.336-7.059c0,0-4.36,8.152-10.851,9.385Z" transform="translate(-819.18 -346.852)"/><path class="b" d="M1097.19,423.75s4.133-9.018,7.5-9.1c0,0-1.985,8.96-7.221,10.618Z" transform="translate(-821.105 -323.808)"/><path class="b" d="M1099.71,399.072s4.6-9.135,8.052-9.151c0,0-2.352,7.808-7.9,9.956Z" transform="translate(-822.808 -305.472)"/><path class="b" d="M1101.85,370.855s3.438-7.559,6.284-8.415c0,0-1.719,9.213-5.907,10.42Z" transform="translate(-824.254 -285.202)"/><path class="b" d="M1106.272,340.385l7.682-11.7s-1.966,11.546-8.8,13.949Z" transform="translate(-826.483 -260.501)"/><path class="b" d="M1117.114,310.693s8.931-6.164,9.252-7.163c0,0-4.542,8.636-12.976,10.16Z" transform="translate(-832.05 -241.646)"/><path class="b" d="M1126,296.556s10.254-9.859,12.873-9.846a16.74,16.74,0,0,0-13.119,9.32Z" transform="translate(-840.4 -229.198)"/><path class="c" d="M1102.15,339.978l.373.049c1.927-15.085,4.736-24.006,7.912-25.1l-.123-.354C1106.948,315.738,1104.126,324.523,1102.15,339.978Z" transform="translate(-824.456 -250.882)"/><path class="c" d="M1093.42,426.623l.564.049c.117-1.408.208-2.852.269-4.285.539-12.486,1.375-23.948,2.472-32.541l-.324-.406c-1.1,8.61-2.17,20.421-2.709,32.921C1093.628,423.788,1093.537,425.222,1093.42,426.623Z" transform="translate(-818.558 -307.755)"/><path class="c" d="M959.562,570.074c.1-.045,10.037-4.48,20.35-15.065a81.889,81.889,0,0,0,14.874-21.086c4.765-9.71,7.672-21.641,8.649-33.232l-.587.276c-2.19,26.014-14.034,43.795-23.455,53.475-10.212,10.491-20.035,14.884-20.133,14.923Z" transform="translate(-727.921 -396.437)"/><path class="d" d="M359.294,115.31H115.254a2.532,2.532,0,0,0-2.174,2.777v8.091H361.468v-8.091a2.532,2.532,0,0,0-2.174-2.777Z" transform="translate(-87.366 -99.45)"/><path class="e" d="M113.08,148.81v136.8a4.3,4.3,0,0,0,4.384,4.207H357.085a4.3,4.3,0,0,0,4.384-4.207V148.81Z" transform="translate(-87.366 -122.082)"/><circle class="f" cx="1.298" cy="1.298" r="1.298" transform="translate(29.445 19.912)"/><circle class="g" cx="1.298" cy="1.298" r="1.298" transform="translate(33.013 19.912)"/><circle class="h" cx="1.298" cy="1.298" r="1.298" transform="translate(36.582 19.912)"/><g class="i" transform="translate(37.88 16.637)"><rect class="j" width="224.382" height="165.447"/><rect class="j" width="147.822" height="165.447" transform="translate(38.28)"/><rect class="j" width="140.143" height="165.447" transform="translate(42.119)"/><rect class="j" width="63.584" height="165.447" transform="translate(80.399)"/><line class="j" y2="165.447" transform="translate(112.191)"/><rect class="j" width="224.382" height="117.435" transform="translate(0 24.006)"/><rect class="j" width="224.382" height="70.072" transform="translate(0 47.688)"/><rect class="j" width="224.382" height="22.708" transform="translate(0 71.369)"/></g><rect class="k" width="23.033" height="8.435" transform="translate(67.022 37.879)"/><rect class="k" width="17.194" height="8.435" transform="translate(47.774 56.441)"/><rect class="k" width="23.033" height="8.435" transform="translate(96.865 37.879)"/><rect class="k" width="23.033" height="8.435" transform="translate(124.892 37.879)"/><rect class="k" width="23.033" height="8.435" transform="translate(150.843 37.879)"/><rect class="k" width="23.033" height="8.435" transform="translate(179.908 37.879)"/><rect class="k" width="23.033" height="8.435" transform="translate(209.492 37.879)"/><rect class="k" width="23.033" height="8.435" transform="translate(232.254 37.879)"/><rect class="l" width="14.965" height="14.488" transform="translate(104.081 74.264)"/><rect class="m" width="14.449" height="13.988" transform="translate(104.326 74.504)"/><rect class="l" width="14.965" height="14.488" transform="translate(128.885 71.749)"/><rect class="n" width="14.449" height="13.988" transform="translate(129.14 71.987)"/><rect class="l" width="14.965" height="14.488" transform="translate(176.647 111.242)"/><rect class="n" width="14.449" height="13.988" transform="translate(176.919 111.501)"/><rect class="o" width="14.965" height="14.488" transform="translate(70.616 53.585)"/><rect class="n" width="14.449" height="13.988" transform="translate(70.847 53.814)"/><rect class="o" width="14.965" height="14.488" transform="translate(94.539 70.214)"/><rect class="p" width="14.449" height="13.988" transform="translate(94.778 70.451)"/><rect class="l" width="14.965" height="14.488" transform="translate(190.731 111.158)"/><rect class="m" width="14.449" height="13.988" transform="translate(191.007 111.417)"/><rect class="l" width="14.965" height="14.488" transform="translate(211.871 53.739)"/><rect class="m" width="14.449" height="13.988" transform="translate(212.155 53.967)"/><rect class="l" width="14.965" height="14.488" transform="translate(210.566 90.633)"/><rect class="m" width="14.449" height="13.988" transform="translate(210.85 90.881)"/><rect class="l" width="14.965" height="14.488" transform="translate(219.701 93.231)"/><rect class="m" width="14.449" height="13.988" transform="translate(219.988 93.48)"/><rect class="o" width="14.965" height="14.488" transform="translate(181.189 107.108)"/><rect class="p" width="14.449" height="13.988" transform="translate(181.459 107.365)"/><rect class="o" width="14.965" height="14.488" transform="translate(182.494 72.032)"/><rect class="p" width="14.449" height="13.988" transform="translate(182.765 72.271)"/><rect class="k" width="17.194" height="8.435" transform="translate(47.774 74.742)"/><rect class="k" width="17.194" height="8.435" transform="translate(47.774 93.828)"/><rect class="k" width="17.194" height="8.435" transform="translate(47.774 112.913)"/><rect class="k" width="17.194" height="8.435" transform="translate(47.774 131.998)"/><rect class="k" width="17.194" height="8.435" transform="translate(47.774 151.084)"/><path class="q" d="M193.645,362.257c.48-.3.289-1.122-.2-1.4a2.407,2.407,0,0,0-1.661-.078.678.678,0,0,0-.357-.714v-.123a.887.887,0,0,0-.195-1.259,2.539,2.539,0,0,0-1.544-.273,2.057,2.057,0,0,0-.649-1.752.542.542,0,0,0-.357-.172c-.324,0-.415.415-.438.723a13.7,13.7,0,0,1-.4,2.4l-10.083,16.869c-1.122,1.622,2.365-3.244,1.242-1.606a14.276,14.276,0,0,1-1.985,2.462,9.783,9.783,0,0,1-2.242,1.5,2.644,2.644,0,0,1-1.531-.435,6.163,6.163,0,0,1-1.473-1.457,28.751,28.751,0,0,1-2.378-3.533,4.577,4.577,0,0,1-.545-1.262,11.646,11.646,0,0,0-.276-2.118,3.461,3.461,0,0,0-.435-.688l-.7-.925v-.042c-.078-1.369-1.191-2.427-2.229-3.328a6,6,0,0,0-3-1.726c-.623-.081-1.262.039-1.885-.039-.509-.065-.993-.256-1.5-.341a6.359,6.359,0,0,0-1.47-.029l-.208-.191a5.813,5.813,0,0,0,2.624-2.206c.48-.775.743-1.671,1.187-2.469.542-.973,1.346-1.778,1.946-2.712a10.02,10.02,0,0,0,1.129-7.649,18.505,18.505,0,0,0-3.568-7.02c-3.114-4.029-8.337-5.515-13.255-4.736q-.487.078-.973.185a12.5,12.5,0,0,0-2.41.769,6.164,6.164,0,0,0-2.631,2.053,4.741,4.741,0,0,0-.457.85,5.013,5.013,0,0,0-.221.7,7.269,7.269,0,0,0-.12,2.193c.019.25.045.5.075.749l.049.376c.032.25.068.5.1.749.052.376.1.753.136,1.122a7.142,7.142,0,0,1,.042.788v.2a3.223,3.223,0,0,1-.088.581,2.435,2.435,0,0,1-.1.308,3.841,3.841,0,0,1-.457.84,10.609,10.609,0,0,1-.821,1.009l-.282.324c-.094.107-.185.217-.279.324a11.892,11.892,0,0,0-1.015,1.372,6.668,6.668,0,0,0-.4.753,5.383,5.383,0,0,0-.23.6,4.994,4.994,0,0,0-.175.843.8.8,0,0,1-.019.214v.425a3.717,3.717,0,0,0,.045.422,2.991,2.991,0,0,0,.1.409,2.776,2.776,0,0,0,.152.4c0,.036.032.071.052.107l.052.107c.036.071.071.14.1.211a1.383,1.383,0,0,1,.107.324v.237a1.327,1.327,0,0,1-.48.827c-.065.062-.13.117-.2.175l-.1.084-.211.165-.2.162a4.086,4.086,0,0,0-.49.487,18.126,18.126,0,0,0-5.431.532,7.343,7.343,0,0,1-1.946.354.973.973,0,0,1-.843-.354,1.242,1.242,0,0,1-.088-.779,6.715,6.715,0,0,0-.519-3.179,1.768,1.768,0,0,0-.519-.756.733.733,0,0,0-.863-.045,8.087,8.087,0,0,1-.224,5.408,17.468,17.468,0,0,1-1.249,2.345c-.74,1.262-1.155,2.706-1.813,4.013.736,2.495.571,5.158.973,7.734a35.555,35.555,0,0,0,2.037,6.968,11.293,11.293,0,0,0,2.7,4.714,2.459,2.459,0,0,0,1.671.727,2.92,2.92,0,0,0,1.3-.493,5.084,5.084,0,0,0,1.1-.808,2.84,2.84,0,0,0,.324-.432,1.684,1.684,0,0,0,.243.61c.792-1.706,1.661-3.374,2.6-5.006a4.291,4.291,0,0,0,.779-.532.7.7,0,0,0,.045.175c-.042.156-.081.324-.123.47s-.091.3-.136.448-.068.217-.1.324-.088.26-.136.389-.1.282-.159.422-.075.2-.117.3c-.1.247-.2.487-.324.727a2.279,2.279,0,0,0,.279.113l.062.019a2.253,2.253,0,0,0,.256.065h.094a1.829,1.829,0,0,0,.191.019h.282a2.777,2.777,0,0,0,.684-.117l.127.519a18.54,18.54,0,0,1,.623,3.568,27.68,27.68,0,0,0,.088,4.088c.133.7.4,1.366.5,2.066a8.8,8.8,0,0,1-.036,1.982q-.227,2.388-.454,4.779a4.087,4.087,0,0,1-.409,1.687c-.224.389-.587.834-.36,1.22a8.1,8.1,0,0,1,1.139-.217c-.139.506-.266,1.015-.386,1.528a2.693,2.693,0,0,0-.091,1.178,7.906,7.906,0,0,1,.35,1.08,3.641,3.641,0,0,1-.571,1.642c-.571,1.382.036,2.939.649,4.308l1.791,4.062,1.47,3.332c.435.973.873,1.979,1.3,2.978a96.674,96.674,0,0,1,4.678,14.027,1.674,1.674,0,0,0,.243.61c.247.324.7.428,1.064.629a1.99,1.99,0,0,1,.221,3.169c.2,2.44-1.622,4.8-2.563,7.056-2.167,5.191-1.774,11.049-2.517,16.629l.84-.49a1.043,1.043,0,0,1,.272.178q-.029.156-.068.324a5.083,5.083,0,0,1-.538,1.353,7.189,7.189,0,0,0-1.353,2.556,15.976,15.976,0,0,0,.107,1.755v.162c-.075-.071-.188-.065-.357.068a2.092,2.092,0,0,0-.529,1c-.146.419-.263.843-.38,1.268l-.435,1.5a17.423,17.423,0,0,1-.879,2.644,11.328,11.328,0,0,0-.779,1.791,5.558,5.558,0,0,0-.133,1.538,4.609,4.609,0,0,0,.211,1.46,3.627,3.627,0,0,0,2.125,2.015,9.977,9.977,0,0,0,2.952.558,2.48,2.48,0,0,0,.775-.023,2.1,2.1,0,0,0,.749-.392,6.251,6.251,0,0,0,2.2-4.542,6.7,6.7,0,0,0-.185-1.032c.084-1.846-.185-3.7-.045-5.541.029.211.058.418.091.626l.324,2.066a.432.432,0,0,0-.11-.195,4.749,4.749,0,0,0-.123,2.365,14.114,14.114,0,0,0,.681,2.294l.441,1.233a2.943,2.943,0,0,0,.526,1.022,2.912,2.912,0,0,0,1.538.72,16.949,16.949,0,0,0,3.724.649.843.843,0,0,0,.49-.091,2.384,2.384,0,0,0,.221-.185,2.179,2.179,0,0,1,.357-.208,2.355,2.355,0,0,0,1.142-1.353,2.135,2.135,0,0,0-.211-1.749,4.085,4.085,0,0,0-.5-.61l-2.219-2.352a13.985,13.985,0,0,0-1.084-1.148.406.406,0,0,0-.357-.117,11.443,11.443,0,0,1-.422-4.915c.032-.493.3-1.515.409-2.355a3.8,3.8,0,0,0,1.178-.649,1.778,1.778,0,0,0,.678-1.012,169.661,169.661,0,0,1,4.62-16.827c.169-.548.324-1.1.5-1.648.071-.234.136-.47.2-.707s.114-.383.169-.574c.091-.324.182-.649.269-.973.026-.088.049-.175.075-.263a.308.308,0,0,1,0-.052c.107-.4.211-.8.324-1.2.039-.156.081-.3.12-.461.127-.506.253-1.019.373-1.528a1.68,1.68,0,0,0,.045-.214.905.905,0,0,0-.036-.542h0a.7.7,0,0,0-.127-.182c-.036-.042-.075-.084-.114-.123a1.791,1.791,0,0,1-.123-.14,1.255,1.255,0,0,1-.227-.425v-.467c0-.143-.019-.324-.029-.493a5.189,5.189,0,0,1,.146-.649c.039-.127.081-.253.12-.38s.1-.324.149-.47a1.19,1.19,0,0,0,.3-.8q.3-.753.665-1.476a4.451,4.451,0,0,0,.594-1.6,6.332,6.332,0,0,0-.188-1.515c-.324-2.109.649-4.162,1.366-6.164a27.339,27.339,0,0,0,1.207-4.542,9.65,9.65,0,0,1,.989-3.452,5.143,5.143,0,0,0,.532-.921,3.627,3.627,0,0,0,.143-1.045,11.526,11.526,0,0,1,1.022-4.143,2.628,2.628,0,0,0,.266-.808.3.3,0,0,0,0-.055v-.078l.165-.026a21.958,21.958,0,0,0,.373-5.58,8.509,8.509,0,0,0-2.852-5.385h.032a1.779,1.779,0,0,0,.818-1.583,3.085,3.085,0,0,0-1.148-2.41,1.152,1.152,0,0,1-.389-.4,1.223,1.223,0,0,1-.049-.522,2.67,2.67,0,0,0-1.645-2.479.619.619,0,0,1-.269-.156.649.649,0,0,1-.071-.474,2.9,2.9,0,0,0-1.4-2.647,4.568,4.568,0,0,0,.062-2.1,1.546,1.546,0,0,0-1.538-1.2c.571-1.557-.24-3.289-.026-4.934.094-.707.376-1.385.412-2.1a4.288,4.288,0,0,1,.188-1.908c.315-.564,1.058-1.006.866-1.622-.081-.263-.324-.444-.438-.7s.341-.649.574-.506c.11-.084.221-.172.324-.263a5.228,5.228,0,0,0,.195.973c.159.532.4,1.032.568,1.56a12.69,12.69,0,0,0,.733,2.423c.649,1.184,2.021,1.771,2.949,2.754.545.574.938,1.3,1.5,1.843a8.174,8.174,0,0,0,1.395,1.048l3,1.946a3.446,3.446,0,0,0,1.025.509,1.749,1.749,0,0,0,2.06-1.483,2.024,2.024,0,0,1-.736-.457.288.288,0,0,0,.127-.019,4.727,4.727,0,0,0,1.924-1.022,25.9,25.9,0,0,0,5.168-6.3c1.57-2.391,9.126-8.717,9.126-8.717v-2.563a9.226,9.226,0,0,0,2.517-2.144,2.78,2.78,0,0,0,.633-1.622A1.444,1.444,0,0,0,193.645,362.257ZM130.808,368.4q-.217,1.4-.535,2.777a26.385,26.385,0,0,1-.9,3.137l-.117.324c-.107-.2-.214-.4-.324-.6-.243-.509-.441-1.038-.649-1.567l-1.252-3.374a1.58,1.58,0,0,1-.081-1.346,1.505,1.505,0,0,1,.714-.535,14.1,14.1,0,0,1,2.744-.931,7.52,7.52,0,0,0,.882-.234A13.3,13.3,0,0,0,130.808,368.4Zm1.385-4.217a.5.5,0,0,1,0-.49,1.116,1.116,0,0,1,.324-.227l.094-.065c-.13.269-.276.529-.419.792Zm2.6-3.669a6.788,6.788,0,0,0-1,1.025,10.708,10.708,0,0,0-.856,1.324.973.973,0,0,0-.357-.973,2.068,2.068,0,0,1-.324-.221.681.681,0,0,1,.136-.954,1.979,1.979,0,0,1,1.009-.344l1.5-.221c-.045.126-.075.25-.107.373Zm14,108.563a5.428,5.428,0,0,0-.088-1.34h.551C149.1,468.172,148.945,468.63,148.79,469.081Z" transform="translate(-93.642 -295.025)"/><path class="r" d="M165.526,338.918c-2.6.418-5.482,1.418-6.488,3.851-.749,1.839-.169,3.909.023,5.885a4.541,4.541,0,0,1-.055,1.567,5.491,5.491,0,0,1-1.375,2.154,11.422,11.422,0,0,0-1.976,2.77,4.027,4.027,0,0,0-.133,3.309,2.385,2.385,0,0,1,.324.873c.032.675-.675,1.1-1.194,1.534-1.946,1.622-1.865,4.542-1.882,7.082a35.915,35.915,0,0,1-3.371,14.984,4.577,4.577,0,0,0,5.116-.668,17.047,17.047,0,0,1-1.161,3.348c1.648.8,3.637-.513,4.464-2.148s.925-3.536,1.512-5.272,1.622-3.244,2.079-4.993a4.646,4.646,0,0,1,.59-1.674,4.405,4.405,0,0,1,1.038-.886,10.131,10.131,0,0,0,3.669-4.973,20.2,20.2,0,0,0,6.135.7,6.819,6.819,0,0,0,5.246-2.877c.48-.775.74-1.667,1.184-2.466.545-.973,1.346-1.778,1.946-2.709a10.018,10.018,0,0,0,1.126-7.643,18.237,18.237,0,0,0-3.568-7.01C175.667,339.625,170.444,338.129,165.526,338.918Z" transform="translate(-111.903 -270.813)"/><path class="b" d="M145.05,430.481c-.146.928-.324,1.856-.532,2.774a27.139,27.139,0,0,1-.9,3.134,2.991,2.991,0,0,0-.282,1.44,2.618,2.618,0,0,0,.347.856c1.184,2.105,2.787,4.139,2.92,6.553a3.5,3.5,0,0,0,.324,1.749q1.372-2.955,3.03-5.761c1.155-1.946,2.44-3.938,2.77-6.19a11.6,11.6,0,0,0-.042-3.179,6.894,6.894,0,0,0-1.139-3.345c-.785-1.025-2.92-2.573-4.324-2.251C145.6,426.633,145.258,429.161,145.05,430.481Z" transform="translate(-107.807 -333.375)"/><path class="s" d="M277.372,425.92a13.967,13.967,0,0,0,4.363-2.44,14.274,14.274,0,0,0,1.985-2.462l3.65-5.265a9.621,9.621,0,0,0,1.946-4.075,13.417,13.417,0,0,0,3.643-8.285c.026-.308.13-.714.438-.723a.542.542,0,0,1,.357.172,2.054,2.054,0,0,1,.649,1.749,2.412,2.412,0,0,1,1.544.272c.435.311.552,1.084.084,1.34a.668.668,0,0,1,.464.756,2.433,2.433,0,0,1,1.664.078c.493.279.681,1.1.2,1.4a1.447,1.447,0,0,1,.925,1.385,2.751,2.751,0,0,1-.633,1.622c-1.4,1.882-3.873,2.641-5.5,4.334a13.1,13.1,0,0,0-1.431,1.911l-4.707,7.163a25.825,25.825,0,0,1-5.165,6.29,4.727,4.727,0,0,1-1.924,1.022,2.118,2.118,0,0,1-2.021-.561,3.284,3.284,0,0,1-.587-2.015C277.245,428.382,277.453,427.137,277.372,425.92Z" transform="translate(-214.07 -316.798)"/><path class="r" d="M211.229,772.5a3.925,3.925,0,0,1,.5.61,2.128,2.128,0,0,1,.211,1.745,2.332,2.332,0,0,1-1.139,1.349,2.075,2.075,0,0,0-.36.208,2.046,2.046,0,0,1-.221.188.9.9,0,0,1-.49.091,17.315,17.315,0,0,1-3.721-.649,3,3,0,0,1-1.538-.72,2.942,2.942,0,0,1-.526-1.022l-.441-1.229a14.251,14.251,0,0,1-.678-2.29,4.7,4.7,0,0,1,.123-2.362.743.743,0,0,1,.162.483,5.287,5.287,0,0,0,.947,2.29,2.323,2.323,0,0,0,.37.464,2.355,2.355,0,0,0,1.106.464,13.721,13.721,0,0,0,2.355.3.648.648,0,0,0,.324-.039.58.58,0,0,0,.269-.324,1.434,1.434,0,0,0,0-.973c-.214-.6-.8-.993-1.08-1.564-.211-.422.078-.886.506-.529A13.5,13.5,0,0,1,209,770.143Z" transform="translate(-147.936 -587.351)"/><path class="s" d="M206.8,745.4c-.127,1.982-.214,4.123.869,5.787.393.6.915,1.1,1.359,1.661a1.979,1.979,0,0,1,.487,1,1.549,1.549,0,0,1-1.337,1.486,4.316,4.316,0,0,1-2.144-.324,5.164,5.164,0,0,1-1.82-.856,5.246,5.246,0,0,1-1.382-3.348l-.441-2.835a6.78,6.78,0,0,1,.4-4.282l.727-2.128a.973.973,0,0,1,.324-.529.9.9,0,0,1,.555-.1c.694.036,2.449.289,2.787,1.025C207.471,742.6,206.848,744.641,206.8,745.4Z" transform="translate(-147.584 -568.776)"/><path class="t" d="M206.8,745.4c-.127,1.982-.214,4.123.869,5.787.393.6.915,1.1,1.359,1.661a1.979,1.979,0,0,1,.487,1,1.549,1.549,0,0,1-1.337,1.486,4.316,4.316,0,0,1-2.144-.324,5.164,5.164,0,0,1-1.82-.856,5.246,5.246,0,0,1-1.382-3.348l-.441-2.835a6.78,6.78,0,0,1,.4-4.282l.727-2.128a.973.973,0,0,1,.324-.529.9.9,0,0,1,.555-.1c.694.036,2.449.289,2.787,1.025C207.471,742.6,206.848,744.641,206.8,745.4Z" transform="translate(-147.584 -568.776)"/><path class="r" d="M224.229,563.366a.357.357,0,0,1,0,.055,2.429,2.429,0,0,1-.266.8,11.523,11.523,0,0,0-1.025,4.133,3.627,3.627,0,0,1-.143,1.045,5.191,5.191,0,0,1-.532.918,9.691,9.691,0,0,0-.989,3.448,27.256,27.256,0,0,1-1.207,4.522c-.723,2-1.7,4.055-1.366,6.164a6.333,6.333,0,0,1,.188,1.515,4.4,4.4,0,0,1-.594,1.593,15.183,15.183,0,0,0-.649,1.476c-.211.539-.4,1.09-.564,1.648a2.238,2.238,0,0,0,.123,2.028,2.476,2.476,0,0,1,.367.444,1.191,1.191,0,0,1,0,.766q-.386,1.622-.824,3.244c-.227.843-.467,1.68-.714,2.517-1.823,6.122-3.893,12.182-5.113,18.452-.175.9-1.333,1.547-2.229,1.745a2.92,2.92,0,0,1-2.563-.684c-.062-.055-.12-.117-.175-.175a5.387,5.387,0,0,1-1.009-3.967c.324-6.452,3.568-12.36,5.113-18.631a36.04,36.04,0,0,0,1.006-6.916c.36-7.786.506-16.019-1.7-23.5-.457-1.557-1-3.315-.175-4.71a4.688,4.688,0,0,1,2.436-1.781,15.672,15.672,0,0,1,12.152.324,3.776,3.776,0,0,1-.019.467,4.788,4.788,0,0,0,.247,2.148,2.728,2.728,0,0,1,.221.915Z" transform="translate(-160.406 -445.492)"/><path class="r" d="M177.6,755.958l-.412,1.5a16.988,16.988,0,0,1-.876,2.637,11.332,11.332,0,0,0-.779,1.791,5.559,5.559,0,0,0-.133,1.538,4.591,4.591,0,0,0,.211,1.457,3.617,3.617,0,0,0,2.122,2.011,9.886,9.886,0,0,0,2.952.555,2.387,2.387,0,0,0,.775-.019,2.107,2.107,0,0,0,.749-.392,6.237,6.237,0,0,0,2.2-4.542,5.581,5.581,0,0,0-.23-1.161c-.107-.143-1.142.441-.7.931.649.72-1.262.347-2.235.285a8.389,8.389,0,0,1-1.268-.208l-1.577-.324c-.516-.11-1.109-.289-1.3-.782s.214-1.083.526-1.564a10.229,10.229,0,0,0,1.23-4.341c.036-.3.405-2.212-.357-1.622a2.15,2.15,0,0,0-.529,1C177.834,755.108,177.717,755.533,177.6,755.958Z" transform="translate(-129.466 -577.335)"/><path class="t" d="M217.15,653.936a2.209,2.209,0,0,1-.12-2.028c.071-.253.152-.5.237-.753l-6.19-2.1c-.023.558-.049,1.109-.075,1.661a35.853,35.853,0,0,1-1,6.92c-1.547,6.268-4.795,12.175-5.113,18.624-.075,1.486.084,3.147,1.184,4.146a2.92,2.92,0,0,0,2.56.688c.9-.2,2.053-.847,2.232-1.748,1.226-6.271,3.286-12.328,5.113-18.456q.853-2.852,1.538-5.748a1.181,1.181,0,0,0,0-.762A2.27,2.27,0,0,0,217.15,653.936Z" transform="translate(-149.379 -506.712)"/><path class="s" d="M182.188,734.514a7.206,7.206,0,0,0-1.35,2.556,15.966,15.966,0,0,0,.107,1.752,5.693,5.693,0,0,1-.256,1.431q-.905,3.267-2.083,6.443a1.768,1.768,0,0,0-.165.876c.078.5.561.824,1.022,1.022a10.9,10.9,0,0,0,4.74.522,2.488,2.488,0,0,0,1.333-.324,2.309,2.309,0,0,0,.753-1.862c.11-2.011-.23-4.032,0-6.031.081-.73.234-1.447.347-2.17a6.318,6.318,0,0,0-.091-3.027,6.942,6.942,0,0,0-1.135-1.9,5.987,5.987,0,0,0-1.573-1.57c-.188-.11-.723-.454-.915-.24-.1.11-.055.405-.068.542a5.685,5.685,0,0,1-.11.623A5.137,5.137,0,0,1,182.188,734.514Z" transform="translate(-131.521 -562.69)"/><path class="t" d="M211.933,565.843a1.7,1.7,0,0,0-.114,1.411c.2.856.548,1.677.827,2.511a34.94,34.94,0,0,1,1.064,4.568c.26,1.395.811,2.949.587,4.353a31.02,31.02,0,0,1,3.286,10.319c.127.925-1.927,2.118-1.888,3.049.078,1.856,1.557,2,.467,3.484-.055.075.409,1.732.347,1.8-.444.535-1.009.973-1.486,1.463a11.251,11.251,0,0,0-1.567,2.294c-2.822,5.1-6.9,10.881-5.645,16.574a1.009,1.009,0,0,1-.539,1.022,2.79,2.79,0,0,1-1.194.276h-.195A5.387,5.387,0,0,1,204.877,615c.324-6.452,3.568-12.36,5.113-18.631A36.042,36.042,0,0,0,211,589.457c.36-7.786.506-16.019-1.7-23.5-.457-1.557-1-3.315-.175-4.71a4.69,4.69,0,0,1,2.436-1.781,15.672,15.672,0,0,1,12.152.325,3.774,3.774,0,0,1-.019.467,4.788,4.788,0,0,0,.247,2.148,2.728,2.728,0,0,1,.243.934s.11-1.255.107-1.236c-2.514.36-5.168,2-7.7,2.378a17.99,17.99,0,0,0-3.864.85A1.74,1.74,0,0,0,211.933,565.843Z" transform="translate(-160.358 -445.458)"/><path class="r" d="M169.676,533.94q-.509,1.622-.9,3.276a2.741,2.741,0,0,0-.091,1.178,7.866,7.866,0,0,1,.35,1.077,3.642,3.642,0,0,1-.571,1.641c-.571,1.379.039,2.936.649,4.3l1.791,4.055,1.473,3.328q.657,1.484,1.3,2.975a96.452,96.452,0,0,1,4.675,14.011,1.727,1.727,0,0,0,.24.61c.25.324.7.428,1.064.629a1.983,1.983,0,0,1,.221,3.166c.208,2.436-1.622,4.788-2.56,7.046-2.167,5.19-1.775,11.03-2.517,16.61l.84-.493c.808.37.779,1.515,1.213,2.29.649,1.165,2.245,1.327,3.568,1.239a2.762,2.762,0,0,0,1.191-.276,1.006,1.006,0,0,0,.539-1.022c-1.255-5.693,2.822-11.474,5.648-16.574a11.238,11.238,0,0,1,1.564-2.294c.48-.506,1.041-.931,1.489-1.463,1.246-1.5,1.4-3.6,1.32-5.551a31.071,31.071,0,0,0-3.536-13.109c.227-1.4-.324-2.955-.584-4.35a34.153,34.153,0,0,0-1.074-4.564c-.279-.84-.62-1.658-.827-2.514a1.715,1.715,0,0,1,.114-1.411,1.749,1.749,0,0,1,.8-.516,17.984,17.984,0,0,1,3.864-.85l8.7-1.249a22.086,22.086,0,0,0,.37-5.576,8.574,8.574,0,0,0-6.141-7.173,1.316,1.316,0,0,0-1.135.075A45.287,45.287,0,0,0,169.676,533.94Z" transform="translate(-124.63 -427.367)"/><path class="s" d="M184,385.106a4.273,4.273,0,0,1-.38,2.491,3.912,3.912,0,0,1-.973,1.093,7.461,7.461,0,0,1-2.868,1.424,3.1,3.1,0,0,0-1.716.749c-.61.736-.2,1.852.324,2.657a6.882,6.882,0,0,0,3.76,3.108c1.3.35,2.65.136,3.961.363.951.165,1.846.558,2.783.782a8.22,8.22,0,0,0,7.549-2.105,10.832,10.832,0,0,1-3.568-3.812,5.408,5.408,0,0,1-.272-3.646c.324-1.187,1.087-2.342.853-3.568a3.673,3.673,0,0,0-2.6-2.456,16.931,16.931,0,0,0-3.289-.652c-.613-.084-4.506-.944-4.749-.519-.136.24.672,1.661.772,1.976A7.513,7.513,0,0,1,184,385.106Z" transform="translate(-131.063 -299.418)"/><circle class="s" cx="7.896" cy="7.896" r="7.896" transform="translate(49.951 74.602)"/><path class="b" d="M166.287,413.018l5.356.9a20.037,20.037,0,0,0,4,.4,11.143,11.143,0,0,1,2.206,0c.506.084.989.276,1.5.341.626.078,1.262-.042,1.888.039a6.027,6.027,0,0,1,3,1.723c1.035.9,2.148,1.946,2.229,3.325a1.009,1.009,0,0,1-.065.461,1.353,1.353,0,0,1-.4.415,13.051,13.051,0,0,0-2.235,3.075,11.849,11.849,0,0,1-2.66,2.871c-.234-.149-.678.243-.577.5s.357.438.441.7c.191.607-.558,1.054-.869,1.622a4.33,4.33,0,0,0-.185,1.9c-.039.71-.324,1.388-.412,2.092-.217,1.645.6,3.377.023,4.931a1.554,1.554,0,0,1,1.538,1.2,4.526,4.526,0,0,1-.062,2.1,2.89,2.89,0,0,1,1.4,2.641.454.454,0,0,0,.324.629,2.673,2.673,0,0,1,1.645,2.475,1.24,1.24,0,0,0,.049.526,1.162,1.162,0,0,0,.386.4,3.075,3.075,0,0,1,1.148,2.407,1.74,1.74,0,0,1-.814,1.58,14.432,14.432,0,0,1-3.6,1.071,31.668,31.668,0,0,1-3.481.62,32.091,32.091,0,0,1-3.244.1l-7.163-.029c-2.015,0-4.029,0-6.037-.152a17.016,17.016,0,0,0-5.609.133c-.227-.386.136-.83.36-1.217a4.049,4.049,0,0,0,.409-1.687l.454-4.772a8.782,8.782,0,0,0,.036-1.979c-.1-.7-.363-1.369-.5-2.066a28.032,28.032,0,0,1-.084-4.081,18.691,18.691,0,0,0-.626-3.568l-1.421-5.839a23.045,23.045,0,0,0-.7-2.92q-1.638-4.217-3.435-8.344a.886.886,0,0,1,.065-.74l1.184-2.122a13.434,13.434,0,0,1,1.084-1.729,6.812,6.812,0,0,1,4-2.453,7.046,7.046,0,0,1,4.649.688c.551.3,1.064.649,1.622.941A6.918,6.918,0,0,0,166.287,413.018Z" transform="translate(-112.612 -324.173)"/><path class="b" d="M249.742,434.55l1.865,2.488a3.46,3.46,0,0,1,.435.688,11.223,11.223,0,0,1,.276,2.112,4.451,4.451,0,0,0,.548,1.262,28.379,28.379,0,0,0,2.371,3.526,6.109,6.109,0,0,0,1.476,1.457,2.427,2.427,0,0,0,1.985.354,1.223,1.223,0,0,0-.649.59,7.23,7.23,0,0,0-.461,4.62,4.673,4.673,0,0,0,.519,1.512,2.245,2.245,0,0,0,1.187,1.028,1.745,1.745,0,0,1-2.06,1.479,3.35,3.35,0,0,1-1.022-.509l-3-1.946a8.337,8.337,0,0,1-1.395-1.048c-.561-.558-.951-1.265-1.5-1.839-.928-.973-2.29-1.57-2.946-2.751a12.647,12.647,0,0,1-.736-2.42c-.165-.529-.409-1.028-.568-1.56a6.979,6.979,0,0,1,.613-4.983A20.247,20.247,0,0,1,249.742,434.55Z" transform="translate(-190.452 -339.598)"/><path class="r" d="M177.552,347.427a10.465,10.465,0,0,0-2.777-2.89,9.52,9.52,0,0,0-5.012-2.118,5.423,5.423,0,0,0-2.255.367c-.036-2.229-.587-3.714-1.982-3.491-2.6.418-5.482,1.418-6.488,3.851-.749,1.839-.169,3.909.023,5.885a4.541,4.541,0,0,1-.055,1.567,5.491,5.491,0,0,1-1.375,2.154,11.422,11.422,0,0,0-1.976,2.77,4.027,4.027,0,0,0-.133,3.309,2.384,2.384,0,0,1,.324.873c.032.675-.675,1.1-1.194,1.534-1.946,1.622-1.865,4.542-1.882,7.082A35.915,35.915,0,0,1,149.4,383.3a4.577,4.577,0,0,0,5.116-.668,17.045,17.045,0,0,1-1.161,3.348c1.648.8,3.637-.513,4.464-2.148s.925-3.536,1.512-5.272,1.622-3.244,2.079-4.993A4.645,4.645,0,0,1,162,371.9a4.405,4.405,0,0,1,1.038-.886c1.7-1.22-.8-10.462-.139-12.447.973.217,2.806-4.542,3.841-9.408a4.9,4.9,0,0,0,2.248.224,2.783,2.783,0,0,1,.8-.055,2.063,2.063,0,0,1,.7.285,17.735,17.735,0,0,0,2.394,1.229,13.354,13.354,0,0,0,5.421.464A5.4,5.4,0,0,0,177.552,347.427Z" transform="translate(-111.903 -271.212)"/><g class="u" transform="translate(37.497 68.073)"><path d="M150.328,383.33a35.817,35.817,0,0,0,3.387-14.971c.016-2.53-.068-5.47,1.882-7.082.519-.431,1.226-.86,1.194-1.534a2.436,2.436,0,0,0-.324-.873,4.078,4.078,0,0,1,.13-3.309,11.355,11.355,0,0,1,1.979-2.77,5.506,5.506,0,0,0,1.372-2.154A4.613,4.613,0,0,0,160,349.07c-.195-1.976-.772-4.045-.023-5.885.973-2.355,3.695-3.364,6.225-3.805a1.424,1.424,0,0,0-.681-.045c-2.6.418-5.482,1.418-6.488,3.851-.749,1.839-.169,3.909.023,5.885a4.542,4.542,0,0,1-.055,1.567,5.49,5.49,0,0,1-1.376,2.154,11.423,11.423,0,0,0-1.976,2.77,4.027,4.027,0,0,0-.133,3.309,2.385,2.385,0,0,1,.324.873c.032.675-.675,1.1-1.194,1.534-1.946,1.622-1.865,4.542-1.882,7.082A35.915,35.915,0,0,1,149.4,383.33a4.438,4.438,0,0,0,2.508.47,4.283,4.283,0,0,1-1.58-.47Z" transform="translate(-149.4 -339.313)"/><path d="M162.484,476.248a17.046,17.046,0,0,0,1.152-3.348,4.328,4.328,0,0,1-1.122.743,16.971,16.971,0,0,1-.973,2.6,2.465,2.465,0,0,0,1.525.195A2.425,2.425,0,0,1,162.484,476.248Z" transform="translate(-157.602 -429.563)"/><path d="M208.066,349.356a5.443,5.443,0,0,1,1.505-.35h-.178a5.285,5.285,0,0,0-1.333.1C208.063,349.177,208.066,349.265,208.066,349.356Z" transform="translate(-189.03 -345.856)"/><path d="M216.678,371.725a17.694,17.694,0,0,1-2.391-1.229,2.076,2.076,0,0,0-.7-.285,2.432,2.432,0,0,0-.733.045,3.007,3.007,0,0,1,.506.24,17.737,17.737,0,0,0,2.394,1.229,10.706,10.706,0,0,0,4,.519A9.389,9.389,0,0,1,216.678,371.725Z" transform="translate(-192.266 -360.18)"/><path d="M205.615,369.71a1.01,1.01,0,0,1-.045.214,4.906,4.906,0,0,0,1.174.032A5.188,5.188,0,0,1,205.615,369.71Z" transform="translate(-187.348 -359.849)"/></g><path class="s" d="M133.107,423.478a2.9,2.9,0,0,1-.779,2.307,5.113,5.113,0,0,1-1.1.808,2.92,2.92,0,0,1-1.3.49,2.469,2.469,0,0,1-1.667-.723,11.144,11.144,0,0,1-2.7-4.71,35.43,35.43,0,0,1-2.037-6.962c-.386-2.569-.221-5.229-.957-7.724.649-1.3,1.071-2.744,1.813-4a18.641,18.641,0,0,0,1.249-2.342,8.11,8.11,0,0,0,.221-5.4.733.733,0,0,1,.863.045,1.788,1.788,0,0,1,.519.756,6.7,6.7,0,0,1,.519,3.176,1.233,1.233,0,0,0,.088.775.973.973,0,0,0,.843.357,7.612,7.612,0,0,0,1.946-.354,18.087,18.087,0,0,1,6-.5,2.9,2.9,0,0,1,1.171.285,1.09,1.09,0,0,1,.6.973l-4.8.7a1.979,1.979,0,0,0-1.009.344.681.681,0,0,0-.136.951,2.227,2.227,0,0,0,.324.221.973.973,0,0,1-.039,1.58,1.117,1.117,0,0,0-.324.227c-.195.263.065.61.149.928a1.171,1.171,0,0,1-.577,1.2,4.013,4.013,0,0,1-1.34.451,14.371,14.371,0,0,0-2.741.931,1.506,1.506,0,0,0-.714.535,1.6,1.6,0,0,0,.081,1.346l1.252,3.367a14.9,14.9,0,0,0,.649,1.567c.324.649.71,1.278,1.038,1.946A20.288,20.288,0,0,1,131,418.91C131.631,420.626,132.893,421.664,133.107,423.478Z" transform="translate(-93.777 -311.411)"/><rect class="l" width="14.965" height="14.488" transform="translate(66.497 90.633)"/><rect class="m" width="14.449" height="13.988" transform="translate(66.73 90.881)"/><path class="s" d="M325.048,410.9a1.492,1.492,0,0,0-.548.8.324.324,0,0,0,.126.363.364.364,0,0,0,.221,0,2.06,2.06,0,0,0,.973-.457.975.975,0,0,0-.289.234.324.324,0,0,0-.039.35.457.457,0,0,0,.324.165,3.1,3.1,0,0,0,1.392-.065,1.91,1.91,0,0,0-.577.341.776.776,0,0,0-.263.6.3.3,0,0,0,.1.224.373.373,0,0,0,.156.055,3.75,3.75,0,0,0,1.3,0,.665.665,0,0,0,.545-.324.818.818,0,0,0-.127-.626,3.5,3.5,0,0,1-.324-1.583.623.623,0,0,0-.045-.324.577.577,0,0,0-.289-.211,2.5,2.5,0,0,0-1.59-.324A3.344,3.344,0,0,0,325.048,410.9Z" transform="translate(-248.066 -319.789)"/></g></svg>