<svg xmlns="http://www.w3.org/2000/svg" xmlns:xlink="http://www.w3.org/1999/xlink" width="237.218" height="202.2" viewBox="0 0 237.218 202.2"><defs><style>.a{fill:#3f3d56;}.b{fill:#f2f2f2;}.c{fill:url(#a);}.d{fill:#c96ae4;}.e{fill:#f55f44;}.f{fill:#fda57d;}.g{opacity:0.05;}.h{opacity:0.7;}.i,.t{opacity:0.1;}.j{fill:#e0e0e0;}.k,.t{fill:#535461;}.l{fill:#fff;}.m{fill:#eee;}.n{opacity:0.5;}.o{fill:#f5f5f5;}.p,.r{opacity:0.6;}.q{fill:#bdbdbd;}.r{fill:#3ad29f;}.s{fill:#69f0ae;}</style><linearGradient id="a" x1="0.5" y1="1" x2="0.5" gradientUnits="objectBoundingBox"><stop offset="0" stop-color="gray" stop-opacity="0.251"/><stop offset="0.535" stop-color="gray" stop-opacity="0.122"/><stop offset="1" stop-color="gray" stop-opacity="0.102"/></linearGradient></defs><g transform="translate(0 -7.109)"><path class="a" d="M242.12,641.345c0,6.876-4.088,9.277-9.13,9.277-.117,0-.234,0-.35,0-.233-.005-.465-.015-.694-.032-4.551-.322-8.087-2.846-8.087-9.241,0-6.617,8.455-14.967,9.092-15.587h0l.037-.036S242.12,634.469,242.12,641.345Z" transform="translate(-203.727 -456.938)"/><path class="b" d="M241.61,649.57l3.34-4.666-3.348,5.178-.009.536c-.234-.005-.465-.015-.694-.032l.36-6.879,0-.053.006-.01.034-.65L237.94,637.8l3.366,4.7.008.138.272-5.2-2.873-5.364,2.908,4.451.283-10.775v0l-.047,8.5,2.86-3.369-2.872,4.1-.075,4.654,2.671-4.466-2.682,5.151-.042,2.587L245.6,636.7l-3.892,7.119Z" transform="translate(-212.68 -456.938)"/><path class="c" d="M454.653,380.445c-2.439-8.971-15.984-15.583-26.552-17.29v-4.309q.293-.111.583-.228a9.628,9.628,0,0,0-.508-2.525,25.708,25.708,0,0,0,11.238-9.005,29.511,29.511,0,0,0-5.706-45.141,5.779,5.779,0,0,0,2.486-6.215,5.693,5.693,0,0,0-5.022-4.368A11.3,11.3,0,0,0,427.6,278a10.956,10.956,0,0,0-13.658.333,10.94,10.94,0,0,1,10.9.288,11.241,11.241,0,0,1,5.366,9.612c0,.1-.006.2-.008.293a11.208,11.208,0,0,0-6.89-10.047,10.96,10.96,0,0,0-11.856,2.318,11.316,11.316,0,0,0-2.706,11.923,5.549,5.549,0,0,0-3.873,3.171,5.672,5.672,0,0,0,.211,5.041,29.493,29.493,0,0,0-7.048,46.572,25.712,25.712,0,0,0,10.424,8.369v7.183c-10.68,1.546-24.745,8.281-27.2,17.473-2.142,8.01-4.428,16.807-5.565,21.972,9.75,6.941,30.207,11.016,43.028,11.016,12.181,0,32.091-3.678,41.554-10C459.246,397.847,456.888,388.664,454.653,380.445Zm-19.53-82.864c0,.1,0,.2-.01.3a5.582,5.582,0,0,0-4.6-5.207q.161-.276.306-.561A5.592,5.592,0,0,1,435.123,297.581Z" transform="translate(-298.868 -236.226)"/><path class="d" d="M420.8,558.731c11.834,0,31.177-3.527,40.37-9.587-1-5.442-3.287-14.248-5.458-22.129-2.765-10.036-20.216-16.994-30.627-16.994H415.053c-10.443,0-27.919,7-30.649,17.078-2.081,7.681-4.3,16.116-5.407,21.069C388.469,554.823,408.344,558.731,420.8,558.731Z" transform="translate(-300.97 -383.774)"/><circle class="e" cx="28.076" cy="28.076" r="28.076" transform="translate(91.589 63.08)"/><path class="f" d="M300.029,306.181h14.689a2.2,2.2,0,0,1,2.2,2.2V323.4a9.024,9.024,0,0,1-9.024,9.024h-1.036a9.024,9.024,0,0,1-9.024-9.024v-15.02a2.2,2.2,0,0,1,2.2-2.2Z" transform="translate(-187.93 -195.139)"/><path class="g" d="M477.947,486.062a24.759,24.759,0,0,0,9.227-1.778,9.144,9.144,0,0,0-9.121-8.552h-.782a9.148,9.148,0,0,0-9.109,8.323A24.754,24.754,0,0,0,477.947,486.062Z" transform="translate(-357.615 -362.37)"/><circle class="f" cx="24.838" cy="24.838" r="24.838" transform="translate(94.88 71.393)"/><circle class="e" cx="5.376" cy="5.376" r="5.376" transform="translate(105.839 58.092)"/><circle class="e" cx="5.376" cy="5.376" r="5.376" transform="translate(125.199 58.092)"/><circle class="e" cx="10.752" cy="10.752" r="10.752" transform="translate(109.534 43.641)"/><path class="e" d="M520.825,322.1a5.351,5.351,0,0,0-3,.915,5.374,5.374,0,0,1,4.806,9.52,5.373,5.373,0,0,0-1.806-10.435Z" transform="translate(-389.026 -265.215)"/><path class="e" d="M487.88,281.094a10.709,10.709,0,0,0-6.838,2.454,10.752,10.752,0,0,1,11.884,17.791,10.751,10.751,0,0,0-5.046-20.245Z" transform="translate(-365.751 -239.265)"/><path class="e" d="M444.05,355.512s2.987,19.713,40.62,8.96l-18.518-16.129Z" transform="translate(-342.264 -281.784)"/><rect class="d" width="25.877" height="11.012" rx="5.506" transform="translate(16.471 187.827)"/><g class="h" transform="translate(199.698 176.825)"><path class="c" d="M729.075,651.77V647.8H709.236v18.351a3.869,3.869,0,0,0,3.869,3.869h12.1a3.868,3.868,0,0,0,3.868-3.869v-4.067a5.158,5.158,0,1,0,0-10.316Zm0,8.332v-6.348a3.174,3.174,0,1,1,0,6.348Z" transform="translate(-709.236 -647.802)"/></g><path class="d" d="M753.737,660.4a4.71,4.71,0,1,0,4.709,4.71A4.71,4.71,0,0,0,753.737,660.4Zm0,7.608a2.9,2.9,0,1,1,2.9-2.9A2.9,2.9,0,0,1,753.737,668.011Z" transform="translate(-534.825 -478.989)"/><path class="i" d="M753.737,660.4a4.71,4.71,0,1,0,4.709,4.71A4.71,4.71,0,0,0,753.737,660.4Zm0,7.608a2.9,2.9,0,1,1,2.9-2.9A2.9,2.9,0,0,1,753.737,668.011Z" transform="translate(-534.825 -478.989)"/><path class="d" d="M543.642,487.455h18.114v16.737a3.551,3.551,0,0,1-3.551,3.551H547.193a3.551,3.551,0,0,1-3.551-3.551Z" transform="translate(-342.87 -309.664)"/><rect class="j" width="237.218" height="7.97" transform="translate(0 198.079)"/><g class="h" transform="translate(68.944 140.501)"><rect class="c" width="99.989" height="57.578" rx="14.5"/></g><rect class="k" width="96.366" height="56.515" rx="10" transform="translate(70.759 141.564)"/><circle class="l" cx="3.261" cy="3.261" r="3.261" transform="translate(115.734 166.226)"/><rect class="j" width="217.293" height="3.261" transform="translate(9.963 206.049)"/><rect class="i" width="217.293" height="1.087" transform="translate(9.963 206.049)"/><path class="i" d="M746.839,650.455V667.21a3.532,3.532,0,0,1-3.532,3.532h1.811a3.532,3.532,0,0,0,3.532-3.532V650.455Z" transform="translate(-531.204 -472.664)"/><path class="m" d="M720.52,612.564a1.058,1.058,0,0,0-.8.406c-.238.431.193.916.586,1.212a7.792,7.792,0,0,1,1.984,1.847,2.315,2.315,0,0,1,.109,2.56c-.7.955-2.385,1.161-2.547,2.336-.1.755.548,1.4,1.209,1.777,1.632.935,3.735,1.184,4.917,2.647a3.813,3.813,0,0,1,2.673-1.835c1.09-.248,2.223-.229,3.328-.4a1.151,1.151,0,0,0,.918-.487c.309-.627-.572-1.379-.268-2.008.231-.479.911-.442,1.407-.634a1.832,1.832,0,0,0,.912-2.187,4.119,4.119,0,0,0-1.558-2.023,17.451,17.451,0,0,0-6.275-2.9,16.077,16.077,0,0,0-3.335-.772A16.667,16.667,0,0,0,720.52,612.564Z" transform="translate(-516.17 -448.585)"/><g class="n" transform="translate(147.117 9.156)"><rect class="c" width="37.247" height="34.365" rx="4.5"/></g><rect class="o" width="36.388" height="33.532" rx="4.5" transform="translate(147.57 9.422)"/><rect class="d" width="6.137" height="5.523" rx="2.761" transform="translate(150.143 14.945)"/><rect class="j" width="24.395" height="0.614" rx="0.307" transform="translate(158.384 14.945)"/><rect class="j" width="24.395" height="0.614" rx="0.307" transform="translate(158.384 16.786)"/><rect class="j" width="32.986" height="0.614" rx="0.307" transform="translate(149.757 23.468)"/><rect class="j" width="32.986" height="0.614" rx="0.307" transform="translate(149.757 25.309)"/><rect class="j" width="32.986" height="0.614" rx="0.307" transform="translate(149.757 27.764)"/><rect class="j" width="19.024" height="0.614" rx="0.307" transform="translate(149.628 29.605)"/><rect class="j" width="32.986" height="0.614" rx="0.307" transform="translate(149.757 32.053)"/><rect class="j" width="32.986" height="0.614" rx="0.307" transform="translate(149.757 33.894)"/><rect class="j" width="32.986" height="0.614" rx="0.307" transform="translate(149.757 36.349)"/><rect class="j" width="19.024" height="0.614" rx="0.307" transform="translate(149.628 38.19)"/><g class="n" transform="translate(152.819 17.097)"><rect class="c" width="37.247" height="34.365" rx="4.5"/></g><rect class="l" width="36.388" height="33.532" rx="4.5" transform="translate(153.271 17.363)"/><rect class="d" width="6.137" height="5.523" rx="2.761" transform="translate(155.834 22.886)"/><rect class="j" width="24.395" height="0.614" rx="0.307" transform="translate(164.081 22.886)"/><rect class="j" width="24.395" height="0.614" rx="0.307" transform="translate(164.081 24.727)"/><rect class="j" width="32.986" height="0.614" rx="0.307" transform="translate(155.458 31.409)"/><rect class="j" width="32.986" height="0.614" rx="0.307" transform="translate(155.458 33.25)"/><rect class="j" width="32.986" height="0.614" rx="0.307" transform="translate(155.458 35.705)"/><rect class="j" width="19.024" height="0.614" rx="0.307" transform="translate(155.323 37.546)"/><rect class="j" width="32.986" height="0.614" rx="0.307" transform="translate(155.458 39.995)"/><rect class="j" width="32.986" height="0.614" rx="0.307" transform="translate(155.458 41.836)"/><rect class="j" width="32.986" height="0.614" rx="0.307" transform="translate(155.458 44.29)"/><rect class="j" width="19.024" height="0.614" rx="0.307" transform="translate(155.323 46.131)"/><rect class="o" width="19.871" height="18.825" transform="translate(81.292 25.206)"/><g class="p" transform="translate(87.813 36.389)"><rect class="d" width="7.16" height="0.965"/></g><rect class="q" width="12.228" height="0.965" transform="translate(85.115 38.159)"/><rect class="l" width="42.408" height="50.551" transform="translate(17.015 7.109)"/><rect class="j" width="29.823" height="1.269" transform="translate(23.36 29.288)"/><rect class="j" width="29.823" height="1.269" transform="translate(23.36 37.643)"/><rect class="j" width="29.823" height="1.269" transform="translate(23.36 39.864)"/><rect class="j" width="12.585" height="1.269" transform="translate(23.36 35.422)"/><rect class="r" width="9.412" height="1.269" transform="translate(44.178 35.422)"/><rect class="d" width="9.412" height="1.269" transform="translate(33.83 45.046)"/><rect class="b" width="25.909" height="21.058" transform="translate(168.555 90.625)"/><rect class="d" width="25.909" height="4.697" transform="translate(168.555 90.556)"/><rect class="i" width="25.909" height="4.697" transform="translate(168.555 90.556)"/><rect class="j" width="21.78" height="2.735" transform="translate(170.602 97.006)"/><rect class="j" width="15.897" height="0.929" transform="translate(170.541 101.842)"/><rect class="j" width="10.322" height="0.929" transform="translate(170.486 103.456)"/><rect class="j" width="13.626" height="0.929" transform="translate(170.518 105.07)"/><rect class="j" width="15.897" height="0.929" transform="translate(170.541 106.685)"/><rect class="j" width="5.316" height="0.929" transform="translate(170.439 108.299)"/><rect class="l" width="32.114" height="26.101" transform="translate(38.989 76.527)"/><rect class="d" width="32.114" height="5.821" transform="translate(38.989 76.454)"/><rect class="o" width="26.996" height="3.391" transform="translate(41.559 84.45)"/><rect class="j" width="19.703" height="1.151" transform="translate(41.525 90.446)"/><rect class="j" width="12.794" height="1.151" transform="translate(41.495 92.446)"/><rect class="j" width="16.889" height="1.151" transform="translate(41.513 94.447)"/><rect class="j" width="19.703" height="1.151" transform="translate(41.525 96.448)"/><rect class="j" width="6.589" height="1.151" transform="translate(41.47 98.449)"/><rect class="s" width="7.677" height="1.024" transform="translate(42.899 85.604)"/><circle class="t" cx="4.448" cy="4.448" r="4.448" transform="translate(168.601 128.472)"/><circle class="t" cx="4.448" cy="4.448" r="4.448" transform="translate(176.967 114.04)"/></g></svg>