<svg xmlns="http://www.w3.org/2000/svg" width="230" height="202.066" viewBox="0 0 230 202.066"><defs><style>.a,.c{fill:#c96ae4;}.a,.d{opacity:0.1;}.b{fill:#3f3d56;}.e{fill:#444053;}.f{fill:#fff;}.g{opacity:0.3;}.h{fill:none;stroke:#444053;stroke-miterlimit:10;stroke-width:3px;}</style></defs><g transform="translate(0.254)"><ellipse class="a" cx="6.549" cy="15.9" rx="6.549" ry="15.9" transform="translate(195.973 179.58) rotate(-45)"/><ellipse class="b" cx="3.515" cy="4.603" rx="3.515" ry="4.603" transform="translate(209.456 178.024)"/><ellipse class="b" cx="3.515" cy="4.603" rx="3.515" ry="4.603" transform="translate(209.456 172.399)"/><ellipse class="b" cx="3.515" cy="4.603" rx="3.515" ry="4.603" transform="translate(209.456 166.773)"/><ellipse class="b" cx="3.515" cy="4.603" rx="3.515" ry="4.603" transform="translate(209.456 161.148)"/><ellipse class="b" cx="3.515" cy="4.603" rx="3.515" ry="4.603" transform="translate(209.456 155.522)"/><ellipse class="b" cx="3.515" cy="4.603" rx="3.515" ry="4.603" transform="translate(209.456 158.542)"/><ellipse class="b" cx="3.515" cy="4.603" rx="3.515" ry="4.603" transform="translate(209.456 154.048)"/><path class="c" d="M989.159,502.373a16.761,16.761,0,0,0,1.31-1.926l-9.239-1.517,9.993.072a16.886,16.886,0,0,0,.328-13.344l-13.4,6.956,12.355-9.088a16.843,16.843,0,1,0-27.816,18.849,16.764,16.764,0,0,0-1.92,3.07l11.991,6.225-12.778-4.292A16.857,16.857,0,0,0,962.7,523.19a16.84,16.84,0,1,0,26.472,0,16.844,16.844,0,0,0,0-20.824Z" transform="translate(-763.027 -379.907)"/><path class="d" d="M959.1,589.6a16.762,16.762,0,0,0,3.6,10.412,16.84,16.84,0,1,0,26.473,0C991.433,597.149,959.1,587.71,959.1,589.6Z" transform="translate(-763.044 -458.851)"/><path class="e" d="M250.436,0V189.068l-57.152-8.928-69.475,15.89-.56.129L67.97,179.09V14.705L125.357,0,188.13,14.705l2.387-.565Z" transform="translate(-45.872)"/><path class="f" d="M272.547,39.32V203.557L221.312,195.8l-62.284,13.8-.5.11L108.97,194.889V52.093L160.418,39.32l56.273,12.773,2.14-.489Z" transform="translate(-77.276 -26.438)"/><path class="d" d="M403.538,180.111,306.36,196,308.526,0l87.8,14.7,3.339-.564Z" transform="translate(-241.711)"/><g class="g" transform="translate(18.13 21.609)"><path class="h" d="M573.35,138l.039,68.639h28.5V178.462H650.71l5.734-7.352" transform="translate(-476.562 -138)"/><path class="h" d="M88.97,198.449H190.7l6.289-2.949H199.5v66.181h44.024l1.887,5.9v29.814h33.961v36.858" transform="translate(-88.97 -176.661)"/><line class="h" y1="72.57" transform="translate(101.128 85.02)"/><line class="h" x1="112.629" transform="translate(67.252 138.149)"/><line class="h" y2="157.59" transform="translate(151.673)"/><line class="h" x2="169.361" transform="translate(10.521 124.218)"/><line class="h" y1="157.59" transform="translate(38.38)"/><line class="h" y2="157.59" transform="translate(70.378)"/><line class="h" x2="179.264" y2="0.655" transform="translate(5.57 39.807)"/><line class="h" y2="157.305" transform="translate(48.638 0.285)"/><path class="h" d="M87.97,370.82h85.747l43.742,47.939" transform="translate(-77.449 -294.541)"/><line class="h" y2="85.02" transform="translate(107.789)"/><line class="h" x2="112.629" transform="translate(67.252 100.248)"/></g><path class="c" d="M518.061,412.08H484.97V397.664l31.289-.164,1.966,5.57Z" transform="translate(-369.168 -294.068)"/><path class="c" d="M636.9,287.15a18.111,18.111,0,0,0-18.111,18.111c0,10,18.111,42.5,18.111,42.5s18.111-32.484,18.111-42.5A18.111,18.111,0,0,0,636.9,287.15Zm0,25.837a7.968,7.968,0,1,1,7.968-7.968,7.968,7.968,0,0,1-7.968,7.968Z" transform="translate(-504.486 -234.961)"/><path class="d" d="M636.9,287.15a18.111,18.111,0,0,0-18.111,18.111c0,10,18.111,42.5,18.111,42.5s18.111-32.484,18.111-42.5A18.111,18.111,0,0,0,636.9,287.15Zm0,25.837a7.968,7.968,0,1,1,7.968-7.968,7.968,7.968,0,0,1-7.968,7.968Z" transform="translate(-504.486 -234.961)"/><path class="c" d="M636.9,295.15a18.111,18.111,0,0,0-18.111,18.111c0,10,18.111,42.5,18.111,42.5s18.111-32.485,18.111-42.5A18.111,18.111,0,0,0,636.9,295.15Zm0,25.837a7.968,7.968,0,1,1,7.968-7.968,7.968,7.968,0,0,1-7.968,7.968Z" transform="translate(-504.486 -241.01)"/><ellipse class="a" cx="10.959" cy="4.515" rx="10.959" ry="4.515" transform="translate(115.005 191.897) rotate(-23.3)"/><ellipse class="b" cx="2.424" cy="3.171" rx="2.424" ry="3.171" transform="translate(124.603 186.752)"/><ellipse class="b" cx="2.424" cy="3.171" rx="2.424" ry="3.171" transform="translate(124.603 182.873)"/><ellipse class="b" cx="2.424" cy="3.171" rx="2.424" ry="3.171" transform="translate(124.603 178.997)"/><ellipse class="b" cx="2.424" cy="3.171" rx="2.424" ry="3.171" transform="translate(124.603 175.121)"/><ellipse class="b" cx="2.424" cy="3.171" rx="2.424" ry="3.171" transform="translate(124.603 171.242)"/><ellipse class="b" cx="2.424" cy="3.171" rx="2.424" ry="3.171" transform="translate(124.603 167.366)"/><ellipse class="b" cx="2.424" cy="3.171" rx="2.424" ry="3.171" transform="translate(124.603 163.49)"/><path class="c" d="M616.7,610.57a11.83,11.83,0,0,1-.9-1.311l6.369-1.048-6.88.052a11.644,11.644,0,0,1-.223-9.2l9.239,4.777-8.518-6.264a11.608,11.608,0,1,1,19.17,12.991,11.649,11.649,0,0,1,1.31,2.116l-8.26,4.3,8.813-2.949a11.615,11.615,0,0,1-1.871,10.9,11.608,11.608,0,1,1-18.246,0,11.611,11.611,0,0,1,0-14.354Z" transform="translate(-499.019 -470.443)"/><path class="d" d="M637.429,670.655a11.559,11.559,0,0,1-2.483,7.178,11.608,11.608,0,1,1-18.246,0C615.143,675.868,637.429,669.364,637.429,670.655Z" transform="translate(-499.018 -523.363)"/><ellipse class="a" cx="6.549" cy="15.9" rx="6.549" ry="15.9" transform="translate(-0.254 172.373) rotate(-45)"/><ellipse class="b" cx="3.515" cy="4.603" rx="3.515" ry="4.603" transform="translate(13.229 170.816)"/><ellipse class="b" cx="3.515" cy="4.603" rx="3.515" ry="4.603" transform="translate(13.229 165.191)"/><ellipse class="b" cx="3.515" cy="4.603" rx="3.515" ry="4.603" transform="translate(13.229 159.565)"/><ellipse class="b" cx="3.515" cy="4.603" rx="3.515" ry="4.603" transform="translate(13.229 153.94)"/><ellipse class="b" cx="3.515" cy="4.603" rx="3.515" ry="4.603" transform="translate(13.229 157.278)"/><ellipse class="b" cx="3.515" cy="4.603" rx="3.515" ry="4.603" transform="translate(13.229 152.784)"/><ellipse class="b" cx="3.515" cy="4.603" rx="3.515" ry="4.603" transform="translate(13.229 148.291)"/><path class="c" d="M168.159,480.373a16.749,16.749,0,0,0,1.311-1.926l-9.239-1.517,9.993.072a16.886,16.886,0,0,0,.328-13.344l-13.4,6.956,12.355-9.088a16.843,16.843,0,1,0-27.816,18.849,16.76,16.76,0,0,0-1.92,3.07l11.991,6.225-12.778-4.292A16.857,16.857,0,0,0,141.7,501.19a16.84,16.84,0,1,0,26.473,0,16.843,16.843,0,0,0,0-20.824Z" transform="translate(-138.253 -363.118)"/><path class="d" d="M138.1,567.6a16.761,16.761,0,0,0,3.6,10.412,16.84,16.84,0,1,0,26.473,0C170.433,575.149,138.1,565.71,138.1,567.6Z" transform="translate(-138.27 -442.413)"/></g></svg>