<svg xmlns="http://www.w3.org/2000/svg" width="599.389" height="498.3" viewBox="0 0 599.389 498.3"><defs><style>.a{fill:#3f3d56;}.b{opacity:0.1;}.c{fill:#ffb9b9;}.d{fill:#d0cde1;}.e{fill:#2f2e41;}.f{fill:#fff;}.g{fill:#f2f2f2;}.h{fill:#2d7ade;}.i{fill:#f49e6c;}.j{fill:#6cc9ff;}</style></defs><g transform="translate(0 0.001)"><path class="a" d="M768.4,629.511H767V476.147a4.19,4.19,0,0,0-1.551-3.261l.886-1.087a5.588,5.588,0,0,1,2.067,4.348Z" transform="translate(-349.81 -219.657)"/><path class="a" d="M565.922,135.23a12.285,12.285,0,0,1,.806,2.579C566.335,136.456,566.027,135.538,565.922,135.23Z" transform="translate(-290.109 -118.949)"/><path class="a" d="M583.216,196.37a20.513,20.513,0,0,1-1.044,4.457Z" transform="translate(-294.971 -137.243)"/><path class="a" d="M588.543,317.1c-27.562,14.366-63.617,26.77-74.416,30.365,8.234-2.144,32.2-5.032,69.335,18.136,46.658,29.1,96.547,9.7,96.547,9.7s-11.086,21.255-34.647,22.635-85-37.415-105.783-26.328-30.491-2.775-38.809,24.948-23.553,103.47-6,145.973l17.548,42.5H412.542s36.034-96.084,16.167-155.209c-11.121-33.112-26.735-57.093-32.558-69.279-2.922-6.1-3.385-9.243.4-9.089,2.151.091,5.676,1.247,10.911,3.532,0,0-24.023-23.56-31.871-23.56s-44.815-3.693-56.819-16.167c0,0-17.092-12.011-47.583,17.555s-23.1,29.566-50.351,27.253c-26.826-2.278-47.842-15.291-48.494-15.7.778.315,32.11,12.838,51.262,6.461,19.4-6.468,36.034-30.953,53.126-39.265s27.253-19.4,50.351-7.393L311.86,268.281l-4.17-9.832-.007-.014S302.6,190.992,292.9,186.374s-3.693-16.63-21.71-18.942c0,0,22.173-2.775,26.328,12.474s32.8,97.472,32.8,97.472,17.548,35.1,36.952,26.791-7.393-54.969-7.393-54.969L326.619,233.95s24.948-.925,40.19,13.4,16.167,60.512,16.167,60.512,38.34,5.543,47.583,26.335c0,0,6.006-18.48-5.543-29.566-2.887-2.775-5.922-7.6-8.844-13.266a117.182,117.182,0,0,1-11.451-70.583c1.717-11.815,2.775-23.371.89-26.1-4.156-6.006-21.71-42.958-23.1-52.664S383.9,112,383.9,112s.463,24.941,6.006,32.8,21.248,46.658,21.248,46.658,0,48.964,12.936,72.986,37.877,50.814,36.5,68.368V342.97s27.716-26.328,25.866-35.109-4.156-29.566-21.71-42.033-29.1-32.341-16.63-60.982c7.015-16.111,10.084-24.766,11.43-29.258L452.269,206.7s-4.618,31.871,8.318,42.958c.035.028.063.056.1.084,12.915,11.1,29.923,31.332,29.923,31.332l-.049-.89-3.644-65.628.8,1.752,5.76,12.628,5.452,11.948s25.866-33.259,56.357-44.345,49.426-49.889,49.426-49.889l25.873-20.33-21.255,25.41S602.86,181.749,566.37,203s-60.05,52.657-61.437,72.061-2.775,36.5-2.775,36.5,68.368-2.313,83.61-32.341,27.723-31.409,27.723-31.409l-8.781,25.866-9.7,22.173s39.727.925,60.512,24.485,72.524,30.491,72.524,30.491l-29.1,7.849A267.6,267.6,0,0,1,644.9,332.346C618.571,315.254,621.339,300.012,588.543,317.1Z" transform="translate(-172.342 -111.998)"/><path class="b" d="M746.791,314.74c-2.922,12.936-6.363,25.431-11.2,34.955-15.242,30.028-83.61,32.341-83.61,32.341s.322-3.966.813-10.224c17.358-1.43,64.808-7.533,77.191-31.928,1.135-2.228,2.186-4.625,3.182-7.148Z" transform="translate(-315.86 -172.662)"/><path class="b" d="M619.895,335.417S602.8,315.087,589.873,304a22.494,22.494,0,0,1-6.209-9.727c-.112-.308-.217-.624-.322-.939.3.294.6.582.925.855,11.318,9.706,25.831,26.5,29.272,30.526l.75.89-3.595-64.766,5.76,12.628Z" transform="translate(-295.321 -156.534)"/><path class="b" d="M648.948,238.667a97.9,97.9,0,0,1-1.577,18.138s25.858-33.246,56.338-44.339c1.8-1.14,3.629-2.262,5.5-3.351,36.494-21.249,42.961-51.276,42.961-51.276l21.249-25.407L747.55,152.757s-18.94,38.8-49.428,49.89C677.339,210.2,658.707,228.061,648.948,238.667Z" transform="translate(-314.48 -118.112)"/><path class="b" d="M592.552,416.724v10.163s27.717-26.331,25.869-35.108c-1.413-6.712-3.1-20.447-11.67-32.117,3.861,8.819,5.036,17.422,6.064,22.306,1.325,6.294-12.552,21.613-20.51,29.778A21.06,21.06,0,0,1,592.552,416.724Z" transform="translate(-298.003 -186.104)"/><path class="b" d="M539.6,341.567c.219.468.446.929.686,1.374,7.084,13.156,17.763,27.14,25.754,39.985C559.585,370.206,548.347,355.659,539.6,341.567Z" transform="translate(-282.234 -180.689)"/><path class="b" d="M732.8,466.552c-15.2-9.479-28.185-14.594-38.795-17.185-11.13,4.189-20.29,7.313-24.9,8.847,8.267-2.14,32.216-4.982,69.3,18.15,29.1,18.149,59.449,17.434,78.176,14.325a48.4,48.4,0,0,0,12.764-14.435S779.461,495.655,732.8,466.552Z" transform="translate(-320.985 -212.945)"/><path class="b" d="M568.047,280.357c-3.725-9.127-4.339-19.988-.059-32.715a99.842,99.842,0,0,1,.8-13.8l7.274-31.115c-1.341,4.487-4.409,13.144-11.431,29.268C555.738,252.409,559.056,268.36,568.047,280.357Z" transform="translate(-288.157 -139.146)"/><path class="b" d="M839.389,399.215c-14.416-16.338-37.938-21.789-51-23.6l-3.9,8.924s39.727.924,60.515,24.483c11.528,13.065,32.57,21.013,49.032,25.5l17.887-4.827S860.176,422.774,839.389,399.215Z" transform="translate(-355.506 -190.878)"/><path class="b" d="M443.564,376.6c19.4-8.315-7.391-54.971-7.391-54.971l-.733-.336c6.68,14.093,16.367,39.561,2.518,45.5-12.959,5.554-25.092-8.264-31.722-18.053l.373,1.072S424.162,384.918,443.564,376.6Z" transform="translate(-242.327 -174.623)"/><path class="b" d="M529.287,428.046s5.846-18.02-5.136-29.146c2.693,9.585-.47,19.336-.47,19.336-7.147-16.081-31.705-23.038-42.462-25.364.417,5.354.488,8.844.488,8.844S520.048,407.259,529.287,428.046Z" transform="translate(-264.764 -196.04)"/><path class="b" d="M583.172,200.827a20.493,20.493,0,0,0,1.041-4.454Z" transform="translate(-295.27 -137.244)"/><path class="b" d="M229.928,435.261c.093-.03.188-.057.28-.088,19.4-6.467,36.032-30.95,53.124-39.265s27.255-19.4,50.352-7.391c0,0-4.041-16.54-11.871-27.407a107.767,107.767,0,0,1,6.265,17.6c-23.1-12.011-33.26-.924-50.352,7.391S244,418.894,224.6,425.362s-51.276-6.467-51.276-6.467,21.249,13.4,48.5,15.706C224.948,434.865,227.609,435.1,229.928,435.261Z" transform="translate(-172.637 -186.537)"/><path class="b" d="M368.069,304.143s-.757.014-2.13.035l-4.17-9.832c.456-.007.694-.014.694-.014s-3.21-42.537-9.39-62.362c.077.035.14.077.21.112C362.981,236.7,368.069,304.143,368.069,304.143Z" transform="translate(-226.42 -147.896)"/><path class="b" d="M525.083,706.934c8.464-25.947,28.82-97.7,12.793-145.4-6.921-20.6-13.336-33.74-18.759-42.121a238.158,238.158,0,0,1,13.153,32.31C552.134,610.85,516.1,706.934,516.1,706.934Z" transform="translate(-275.202 -233.904)"/><path class="b" d="M508.341,467.031a51.367,51.367,0,0,0-17.618-4.254c-2.922-6.1-3.385-9.243.4-9.089,1.051.189,2.109.413,3.161.673C501.712,460.527,508.341,467.031,508.341,467.031Z" transform="translate(-266.915 -214.236)"/><path class="b" d="M338.4,211.727a12.084,12.084,0,0,0,1.9,2.429,13.633,13.633,0,0,0-1.9-2.429Z" transform="translate(-222.029 -141.838)"/><path class="b" d="M439.289,309.225a22.487,22.487,0,0,1,2,2.159c-2.024-4.865-4.522-9.071-7.609-11.97-15.244-14.32-40.189-13.4-40.189-13.4l31.284,14.338a44.674,44.674,0,0,1,14.512,8.869Z" transform="translate(-238.515 -164.064)"/><path class="b" d="M496.187,194.685c1.885,2.723.826,14.279-.895,26.1a117.173,117.173,0,0,0,11.455,70.578,82.191,82.191,0,0,0,4.922,8.449A117.284,117.284,0,0,1,500.9,230.593c1.721-11.819,2.78-23.375.9-26.1-4.157-6.005-21.711-42.961-23.1-52.662a67.218,67.218,0,0,1-.289-11.335c-3.588-10.181-3.931-28.5-3.931-28.5s-2.772,20.326-1.386,30.026S492.03,188.68,496.187,194.685Z" transform="translate(-262.216 -111.997)"/><path class="b" d="M567.7,137.726a13.219,13.219,0,0,0-.839-2.658S567.214,136.065,567.7,137.726Z" transform="translate(-290.389 -118.901)"/><path class="b" d="M328.994,200.932c4.071.5,8.754,1.747,12.326,4.644-.233-.788-.436-1.495-.6-2.088-4.158-15.244-26.331-12.472-26.331-12.472C324.412,192.3,327,196.586,328.994,200.932Z" transform="translate(-214.846 -135.582)"/><path class="a" d="M954.619,747.048c-6.889,10.565-5,24-5,24s13.058-3.692,19.947-14.257,5-24,5-24S961.509,736.483,954.619,747.048Z" transform="translate(-424.847 -272.751)"/><path class="c" d="M791.088,639.076s7.927-8.316,11.172-6.643-9.329,9.11-9.329,9.11Z" transform="translate(-357.483 -267.655)"/><path class="b" d="M791.088,639.076s7.927-8.316,11.172-6.643-9.329,9.11-9.329,9.11Z" transform="translate(-357.483 -267.655)"/><path class="d" d="M755.6,615.959a19.656,19.656,0,0,0-2.151,10.854c.762,5.631,7.736,23.7,10.107,23.378s19.932-13.262,19.932-13.262l-3.349-4.677-12.829,7.773S765.356,612.223,755.6,615.959Z" transform="translate(-346.183 -262.689)"/><path class="e" d="M813.2,630.022l-20,10.986a.952.952,0,0,1-1.4-.413l-4.9-10.241a1.278,1.278,0,0,1,.655-1.535l16.6-8.559a.97.97,0,0,1,1.271.243l8.294,7.814a1.232,1.232,0,0,1-.525,1.7Z" transform="translate(-356.212 -264.038)"/><path class="f" d="M640.073,517.1l-18.749,10.717-4.99-8.992,16.084-8.747Z" transform="translate(-184.419 -152.624)"/><ellipse class="g" cx="0.276" cy="0.235" rx="0.276" ry="0.235" transform="translate(439.386 361.286) rotate(-50.158)"/><ellipse class="g" cx="0.184" cy="0.157" rx="0.184" ry="0.157" transform="translate(446.467 370.466) rotate(-50.158)"/><path class="b" d="M755.6,615.959a19.656,19.656,0,0,0-2.151,10.854c.762,5.631,7.736,23.7,10.107,23.378s19.932-13.262,19.932-13.262l-3.349-4.677-12.829,7.773S765.356,612.223,755.6,615.959Z" transform="translate(-346.183 -262.689)"/><path class="c" d="M783.44,641.941s8.972-7.177,11.962-5.084-10.467,7.775-10.467,7.775Z" transform="translate(-355.194 -268.931)"/><circle class="c" cx="8.673" cy="8.673" r="8.673" transform="translate(407.611 326.956)"/><path class="c" d="M805.069,677.134s9.271,1.2,8.972,6.878-7.177,29.307-7.177,29.307l-.6,9.271s.6,15.551-1.2,15.252-5.981-11.065-5.981-11.065-5.084-3.29-2.691-6.28,4.187-2.692,3.589-5.981-.3-17.046,1.5-21.233,2.84-6.5,2.84-6.5l-5.83-.382Z" transform="translate(-358.88 -281.097)"/><path class="b" d="M805.069,677.134s9.271,1.2,8.972,6.878-7.177,29.307-7.177,29.307l-.6,9.271s.6,15.551-1.2,15.252-5.981-11.065-5.981-11.065-5.084-3.29-2.691-6.28,4.187-2.692,3.589-5.981-.3-17.046,1.5-21.233,2.84-6.5,2.84-6.5l-5.83-.382Z" transform="translate(-358.88 -281.097)"/><path class="c" d="M807.217,679.268s8.972,2.093,9.869,8.074,5.383,23.625,5.383,23.625l4.785,11.065s7.476,13.457,4.187,13.158-7.776-6.878-9.271-6.878-5.981-1.794-5.682-2.991a34.688,34.688,0,0,1,2.392-4.785l-7.235-12.6a30.611,30.611,0,0,1-3.138-7.767,54.437,54.437,0,0,1-1.589-7.741c0-2.093-5.981-2.99-5.981-2.99Z" transform="translate(-360.43 -281.736)"/><path class="e" d="M755.519,651.956l4.187,11.962s6.579,1.794,11.364,3.29,13.756-.6,14.654,2.991-1.794,9.869-4.486,11.364-4.187,2.991-12.859.6-29.307-2.991-29.307-2.991a14.992,14.992,0,0,1-6.579,2.093c-3.888.3-4.785.6-5.981-.3s.6-.9,1.2-3.29.9-1.5,3.589-4.187,4.785-10.766,6.28-13.457,2.392-8.074,2.392-8.074Z" transform="translate(-338.04 -273.564)"/><path class="c" d="M761.861,598.629a8.757,8.757,0,0,0-3.589,6.878c0,4.486-8.972-4.785-8.972-4.785s4.785-5.981,4.785-7.775S761.861,598.629,761.861,598.629Z" transform="translate(-344.979 -255.824)"/><path class="d" d="M747.851,598.613s5.383,2.093,6.579,5.084,5.682,9.271,5.682,9.271,6.28,6.579,4.187,13.756-3.888,8.972-3.888,10.168-2.991,3.29-5.383,2.991-11.364-1.5-11.962-2.691-4.187-18.242-1.794-24.522a145.107,145.107,0,0,1,6.579-14.056Z" transform="translate(-342.333 -257.602)"/><path class="e" d="M760.295,584.8c1.941.461,3.845-.776,5.436-2,.9-.7,1.9-1.689,1.62-2.809-.245-.994-1.416-1.557-1.587-2.568-.119-.7.292-1.385.325-2.1a2.961,2.961,0,0,0-1.741-2.54c-.946-.509-2.018-.721-2.989-1.177-1.483-.7-2.716-1.95-4.3-2.352-2.164-.549-4.368.62-6.593.771-1.347.092-2.71-.192-4.042.029A5.77,5.77,0,0,0,741.8,575.5c-.017.952.173,2.014-.395,2.769a4.191,4.191,0,0,1-.761.689,9.207,9.207,0,0,0-2.979,6.849c-.05,1.268.215,2.774,1.34,3.312a4.967,4.967,0,0,0,1.875.261,1.958,1.958,0,0,1,1.655.79c.512.9-.255,2.239.415,3.027a1.518,1.518,0,0,0,2.073-.109c.588-.5.954-1.231,1.512-1.771,1.084-1.05,2.692-1.24,4.178-1.4a2.12,2.12,0,0,0,1.225-.4,1.894,1.894,0,0,0,.5-1.031,6.387,6.387,0,0,0,.007-2.706,1.5,1.5,0,0,1-.034-.857,1.216,1.216,0,0,1,.439-.491c.921-.692,2.534-1.7,3.731-1.508C757.91,583.134,758.955,584.478,760.295,584.8Z" transform="translate(-341.496 -248.773)"/><path class="d" d="M751.182,613.914a19.656,19.656,0,0,0-3.589,10.467c0,5.682,4.486,24.522,6.878,24.522S776,638.436,776,638.436l-2.691-5.084-13.756,5.981S761.35,611.521,751.182,613.914Z" transform="translate(-344.468 -262.137)"/><rect class="h" width="68.676" height="13.315" transform="translate(378.643 405.756)"/><path class="a" d="M759.264,638.891a5.613,5.613,0,0,1-5.606-5.606V475.609a5.606,5.606,0,0,1,9.146-4.348l-.885,1.087a4.2,4.2,0,0,0-6.859,3.261V633.285a4.209,4.209,0,0,0,4.2,4.2Z" transform="translate(-346.283 -219.12)"/><path class="a" d="M564.829,1.4h0Z" transform="translate(34.56 472.33)"/><ellipse class="i" cx="0.701" cy="2.102" rx="0.701" ry="2.102" transform="translate(399.207 328.874) rotate(-38.768)"/><path class="a" d="M658.619,747.048c-6.889,10.565-5,24-5,24s13.057-3.692,19.947-14.257,5-24,5-24S665.509,736.483,658.619,747.048Z" transform="translate(-316.278 -297.751)"/><path class="a" d="M498.642,748.43c3.294,12.175,14.575,19.716,14.575,19.716s5.941-12.2,2.648-24.375-14.575-19.716-14.575-19.716S495.349,736.255,498.642,748.43Z" transform="translate(-294.68 -318.137)"/><path class="j" d="M956.619,745.893c-.545,12.6-9.9,22.431-9.9,22.431s-8.471-10.6-7.927-23.2,9.9-22.431,9.9-22.431S957.164,733.293,956.619,745.893Z" transform="matrix(0.998, -0.07, 0.07, 0.998, -473.367, -202.805)"/><path class="j" d="M660.619,745.893c-.545,12.6-9.9,22.431-9.9,22.431s-8.471-10.6-7.927-23.2,9.9-22.431,9.9-22.431S661.164,733.293,660.619,745.893Z" transform="translate(-313.103 -294.729)"/><path class="j" d="M496.33,751.032c9.038,8.8,10.142,22.322,10.142,22.322s-13.549-.74-22.587-9.538-10.142-22.322-10.142-22.322S487.292,742.234,496.33,751.032Z" transform="translate(-287.527 -322.355)"/><path class="j" d="M455.6,274.074c-.786,12.588-10.326,22.238-10.326,22.238s-8.267-10.761-7.481-23.349,10.326-22.238,10.326-22.238S456.388,261.486,455.6,274.074Z" transform="translate(-251.755 -153.508)"/><path class="j" d="M311.032,168.372C321.7,175.1,325.593,188.1,325.593,188.1s-13.407,2.093-24.076-4.633-14.561-19.726-14.561-19.726S300.362,161.645,311.032,168.372Z" transform="translate(-206.637 -127.387)"/><path class="j" d="M277.032,387.372C287.7,394.1,291.593,407.1,291.593,407.1s-13.407,2.093-24.076-4.633-14.561-19.726-14.561-19.726S266.362,380.645,277.032,387.372Z" transform="translate(-196.463 -192.916)"/><path class="j" d="M589.062,192.1c-3.218,12.2-14.452,19.806-14.452,19.806s-6.017-12.162-2.8-24.358,14.452-19.806,14.452-19.806S592.279,179.9,589.062,192.1Z" transform="translate(-291.587 -128.677)"/><path class="j" d="M733.829,205.623c-3.782,12.033-15.358,19.112-15.358,19.112s-5.445-12.429-1.663-24.462,15.358-19.112,15.358-19.112S737.611,193.59,733.829,205.623Z" transform="translate(-334.857 -132.693)"/><path class="j" d="M889.61,396.909c-6.85,10.59-19.894,14.33-19.894,14.33s-1.937-13.43,4.913-24.021,19.894-14.33,19.894-14.33S896.46,386.318,889.61,396.909Z" transform="translate(-380.934 -190.061)"/><path class="a" d="M866,206" transform="translate(-379.898 -140.125)"/></g></svg>