<svg xmlns="http://www.w3.org/2000/svg" width="53.763" height="46" viewBox="0 0 53.763 46"><defs><style>.a{fill:#fff;}</style></defs><g transform="translate(0 -36.966)"><g transform="translate(32.812 63.015)"><path class="a" d="M316.393,290.245a1.028,1.028,0,0,0-1.028,1.028v1.754a1.028,1.028,0,0,0,2.055,0v-1.754A1.028,1.028,0,0,0,316.393,290.245Z" transform="translate(-315.365 -290.245)"/></g><g transform="translate(46.24 63.015)"><path class="a" d="M458.046,290.245a1.028,1.028,0,0,0-1.028,1.028v1.754a1.028,1.028,0,0,0,2.055,0v-1.754A1.028,1.028,0,0,0,458.046,290.245Z" transform="translate(-457.018 -290.245)"/></g><g transform="translate(37.448 64.352)"><path class="a" d="M375.2,302.424a1.028,1.028,0,0,0-1.45.1,2.206,2.206,0,0,1-3.236,0,1.028,1.028,0,0,0-1.548,1.353,4.26,4.26,0,0,0,6.331,0A1.028,1.028,0,0,0,375.2,302.424Z" transform="translate(-368.71 -302.17)"/></g><g transform="translate(0 36.966)"><g transform="translate(0 0)"><path class="a" d="M50.048,54.585a18.754,18.754,0,0,0-3.272-3.158q-.8-.6-1.664-1.136a15.983,15.983,0,0,1,1.377-5.05,2.629,2.629,0,0,0,.68.091,2.646,2.646,0,1,0-2.624-2.322,2.634,2.634,0,0,0,.6,1.379,17.051,17.051,0,0,0-1.521,5.061,26,26,0,0,0-4.766-1.9,15.128,15.128,0,0,1,1.163-3.635,2.629,2.629,0,0,0,.68.091A2.661,2.661,0,0,0,42.8,42.989a2.646,2.646,0,0,0-2.084-4.274,2.674,2.674,0,0,0-2.628,2.97,2.634,2.634,0,0,0,.606,1.38,16.526,16.526,0,0,0-1.354,4.088,30.286,30.286,0,0,0-3.211-.561c.029-.085.058-.17.084-.255a7.637,7.637,0,0,0-.4-5.572,6.645,6.645,0,0,0-4.062-3.523,7.083,7.083,0,0,0-8.129,3.563,8,8,0,0,0-6.1-2.976,7.312,7.312,0,0,0-2.126.316A8.091,8.091,0,0,0,8.362,48.4a8.651,8.651,0,0,0,3.089,4.45A19.075,19.075,0,0,0,8.413,56.2a15.26,15.26,0,0,0-2.5,5.734l-5,1.568a1.195,1.195,0,0,0,0,2.323l5,1.568a15.257,15.257,0,0,0,2.5,5.734,21.32,21.32,0,0,0,7.3,6.314,28.849,28.849,0,0,0,8.494,2.968,32.924,32.924,0,0,0,6.054.556,31.03,31.03,0,0,0,8.118-1.048,22,22,0,0,0,12.847-8.7l.007-.011A15.646,15.646,0,0,0,50.048,54.585ZM46.329,42.027a1.061,1.061,0,0,1,.712-.4,1.092,1.092,0,0,1,.133-.008,1.069,1.069,0,0,1,.129,2.13,1.093,1.093,0,0,1-.133.008,1.069,1.069,0,0,1-.84-1.726ZM40.578,40.3a1.068,1.068,0,1,1-.93,1.191A1.088,1.088,0,0,1,40.578,40.3ZM5.672,65.666l-3.19-1,3.19-1c-.008.113-.013.225-.018.338A13.762,13.762,0,0,0,5.672,65.666ZM27.855,38.54a4.922,4.922,0,0,1,1.43.213,5.085,5.085,0,0,1,3.1,2.7A6.065,6.065,0,0,1,32.7,45.88q-.086.282-.2.559c-.091-.006-.938-.05-1.271-.061q-1.645-.048-3.288.066c-.514.036-1.566.146-1.578.148a12.185,12.185,0,0,1,2.706-4.718.789.789,0,0,0-1.1-1.128,13.649,13.649,0,0,0-3.334,6.1q-.5.087-1,.19a8.817,8.817,0,0,0-.1-2.022,8.96,8.96,0,0,0-.889-2.669A5.768,5.768,0,0,1,27.855,38.54Zm-17.983,9.4a6.516,6.516,0,0,1,3.974-8.283,6.416,6.416,0,0,1,7.3,3.254,7.338,7.338,0,0,1,.859,4.477l0,.028a29.265,29.265,0,0,0-3.107,1,15.764,15.764,0,0,0-3.59-6.3.789.789,0,1,0-1.1,1.128,14.321,14.321,0,0,1,3.233,5.783,25.98,25.98,0,0,0-2.759,1.453c-.389.237-1.928,1.349-1.961,1.327A7.05,7.05,0,0,1,9.871,47.939ZM9.71,72.218A13.432,13.432,0,0,1,7.378,66.68c0-.008,0-.017,0-.025a12.312,12.312,0,0,1,0-3.981c0-.009,0-.017,0-.025.5-3.74,3.05-7.028,5.938-9.3.088-.069.36-.277.371-.286-.006.012-.2.407-.293.593a25.644,25.644,0,0,0,.275,22.583l.018.036A18.328,18.328,0,0,1,9.71,72.218Zm6.926,5.927q-.109-.158-.215-.318A23.707,23.707,0,0,1,14.675,74.7a24.04,24.04,0,0,1,1.332-22.543c.139-.226.6-.93.628-.968l.055-.029a26.541,26.541,0,0,1,5.379-2.124L22.185,49q-.594.759-1.129,1.562a25.567,25.567,0,0,0,.454,28.864c.076.106.561.758.676.9A26.565,26.565,0,0,1,16.636,78.146ZM37.97,80.4a29.451,29.451,0,0,1-7.705.993,31.4,31.4,0,0,1-5.509-.482A23.636,23.636,0,0,1,20.491,74.5a24.062,24.062,0,0,1,1.277-22.11,23.549,23.549,0,0,1,2.986-3.963L25,48.382a31.305,31.305,0,0,1,7.879-.333,25.306,25.306,0,0,1,12.41,4.243,6.1,6.1,0,0,0-3.95,1.44,10.51,10.51,0,0,0-7.045-2.683,10.835,10.835,0,0,0-8.813,4.545,15.594,15.594,0,0,0-2.964,9.07,15.361,15.361,0,0,0,1.574,6.742,15.693,15.693,0,0,0,14.089,8.729c.151,0,.691-.014.749-.017Q38.453,80.265,37.97,80.4Zm11.946-8.061A14.17,14.17,0,0,1,25.5,70.712a13.938,13.938,0,0,1,1.258-14.2,9.236,9.236,0,0,1,13.81-1.331,1.075,1.075,0,0,0,.758.431,1.2,1.2,0,0,0,.793-.466,4.6,4.6,0,0,1,6.713.389,14.527,14.527,0,0,1,3.424,9.138A13.731,13.731,0,0,1,49.916,72.335Z" transform="translate(0 -36.966)"/></g></g></g></svg>