<svg xmlns="http://www.w3.org/2000/svg" width="130.789" height="142.674" viewBox="0 0 130.789 142.674"><defs><style>.a{fill:#fff;}</style></defs><g transform="translate(-19.991 0)"><g transform="translate(19.991 0)"><path class="a" d="M148.4,30.908H138.89a2.378,2.378,0,0,0-2.378,2.378v2.378a2.378,2.378,0,0,0-2.378-2.378H127a2.378,2.378,0,0,0-2.378,2.221l-.164,2.535h-4.592V33.286a2.378,2.378,0,0,0-2.378-2.378h-9.512a2.378,2.378,0,0,0-2.378,2.378V47.554a2.378,2.378,0,0,0,2.378,2.378h9.512a2.378,2.378,0,0,0,2.378-2.378V42.8h4.28l-1.3,19.454a4.734,4.734,0,0,1-4.742,4.326H103.221v-1.02a2.379,2.379,0,0,0-1.36-2.14A38.28,38.28,0,0,0,91.716,60.3a2.364,2.364,0,0,0-1.132.114,23.393,23.393,0,0,0-4.009-.847V53.083a19.82,19.82,0,0,0,2.045-1.206c7.99-5.591,14.6-11.205,14.6-23.288V26.152A26.234,26.234,0,0,0,61.382,5.1,19,19,0,0,0,39.015,23.774v35.67a2.378,2.378,0,0,0,2.378,2.378,35.245,35.245,0,0,0,24.412-9.766,19.892,19.892,0,0,0,1.745,1.027V59.57a23.387,23.387,0,0,0-4.012.837,2.361,2.361,0,0,0-1.13-.114,38.28,38.28,0,0,0-10.144,3.115,2.379,2.379,0,0,0-1.36,2.14v.078a56.4,56.4,0,0,0-14.268,36.621c0,6.523.312,14.03,2.242,19.024h-4.62v-4.756a2.378,2.378,0,0,0-2.378-2.378H22.369a2.378,2.378,0,0,0-2.378,2.378v14.268a2.378,2.378,0,0,0,2.378,2.378h9.512a2.378,2.378,0,0,0,2.378-2.378v-4.756H47.854a36.383,36.383,0,0,0-4.083,16.646h4.756A31.552,31.552,0,0,1,50.9,130.751v.033a2.378,2.378,0,0,0,2.378,2.378h9.512a2.378,2.378,0,0,0,2.378-2.378v-9.512H94.945l1.37,1.712a31.628,31.628,0,0,1,6.906,19.69h4.756a36.4,36.4,0,0,0-7.95-22.66l-1.819-2.273L97.295,115a29.677,29.677,0,0,1,.6-20.377l.133-.333a7.429,7.429,0,0,0,5.2-6.668v-.1L129,82a9.564,9.564,0,0,0,7.517-9.3V47.554a2.378,2.378,0,0,0,2.378,2.378H148.4a2.378,2.378,0,0,0,2.378-2.378V33.286A2.378,2.378,0,0,0,148.4,30.908ZM115.11,45.176h-4.756V35.664h4.756ZM29.5,128.406H24.747v-9.512H29.5Zm18.427-8.137.166,1.011H44.149c-1.358-1.89-2.756-6.8-2.756-19.031A52.75,52.75,0,0,1,50.9,73.011V87.452C47.768,94.558,46.727,113.044,47.93,120.268ZM75.636,4.8A21.376,21.376,0,0,1,98.274,23.4L85.26,16.89a2.359,2.359,0,0,0-1.477-.214L56.155,21.551A21.107,21.107,0,0,1,75.636,4.8ZM43.771,56.976v-33.2a14.282,14.282,0,0,1,12.951-14.2A26.159,26.159,0,0,0,50.9,26.152V28.59c0,10.2,4.72,15.787,11,20.648A30.5,30.5,0,0,1,43.771,56.976ZM55.661,28.59V26.469L83.838,21.5,98.453,28.8c-.069,8.856-4.114,13.264-12.558,19.178a15.457,15.457,0,0,1-17.664,0C59.715,42.018,55.661,37.6,55.661,28.59Zm9.512,36.255a18.119,18.119,0,0,1,4.756-.644,2.378,2.378,0,0,0,2.378-2.378V54.886a18.494,18.494,0,0,0,9.512,0v6.937A2.378,2.378,0,0,0,84.2,64.2a18.119,18.119,0,0,1,4.756.644v3.8l-11.89,2.556-11.89-2.556ZM52.234,114.407a99.781,99.781,0,0,1,1.833-21.2,9.723,9.723,0,0,0,1.988,1.058,29.437,29.437,0,0,1,.292,19.868H53.283A2.321,2.321,0,0,0,52.234,114.407Zm8.183,14H55.661v-9.512h4.756Zm4.756-11.89a2.378,2.378,0,0,0-2.378-2.378H61.368a34.188,34.188,0,0,0,0-19.024H92.662a34.448,34.448,0,0,0,.121,21.4ZM98.465,87.623c0,1.291-2.033,2.735-4.756,2.735H60.417c-2.723,0-4.756-1.443-4.756-2.735V67.106a32.983,32.983,0,0,1,4.756-1.553v5.025A2.378,2.378,0,0,0,62.3,72.9l14.268,3.07a2.338,2.338,0,0,0,1,0L91.83,72.9a2.378,2.378,0,0,0,1.879-2.326V65.551A32.983,32.983,0,0,1,98.465,67.1v20.52ZM128,77.353l-24.776,5.308V71.334h14.886a9.481,9.481,0,0,0,9.479-8.708l1.641-24.584h2.53V72.7h0A4.78,4.78,0,0,1,128,77.353Zm18.028-32.177h-4.756V35.664h4.756Z" transform="translate(-19.991 0)"/></g></g></svg>