<svg xmlns="http://www.w3.org/2000/svg" width="61.022" height="66.198" viewBox="0 0 61.022 66.198"><defs><style>.a{fill:#45b549;}.b{fill:#009549;}</style></defs><g transform="translate(-15.643 -0.001)"><path class="a" d="M105.847,15.045c18.713-2.058,24.794-13.9,24.814-13.9a1.2,1.2,0,0,1,2.23.238c6.22,21.095,2.825,35.639-4.314,44.267a26.859,26.859,0,0,1-10.316,7.7,25.7,25.7,0,0,1-11.712,1.985c-7.669-.536-14.67-4.632-17.919-11.97a19.942,19.942,0,0,1-1.595-5.909,20.315,20.315,0,0,1,2.289-11.844,19.652,19.652,0,0,1,9.442-8.681,23.778,23.778,0,0,1,7.08-1.886Z" transform="translate(-59.478 -0.418)"/><path class="b" d="M71.05,1.175a1.2,1.2,0,1,1,2.4.205c0,.06-1.052,13.9-14.557,27.9l-.126.132a70.2,70.2,0,0,1-10.4,8.774l8.112,1.509a1.2,1.2,0,0,1-.4,2.369L45.488,40.077c-9.654,6.114-26.018,11.758-27.447,25.078a1.2,1.2,0,0,1-2.4-.238C17.353,48.95,33.578,44.841,44.522,37.86l.152-.1a69.547,69.547,0,0,0,12.063-9.667l-.959-9.5a1.2,1.2,0,0,1,2.387-.32c0,.027.006.055.008.082l.728,7.371C70.157,13.093,71.043,1.228,71.05,1.175Z" transform="translate(0 0)"/></g></svg>