<svg xmlns="http://www.w3.org/2000/svg" xmlns:xlink="http://www.w3.org/1999/xlink" width="428.69" height="477.894" viewBox="0 0 428.69 477.894"><defs><style>.a{fill:#f8591f;}.b{fill:#5679a6;}.c{fill:#d5d6db;}.d,.o,.p{opacity:0.1;}.e,.g{fill:#fff;}.e{opacity:0.3;}.f{fill:#3a3768;}.g{opacity:0.45;}.h{fill:url(#a);}.i{fill:#be6f72;}.j{fill:#3e373a;}.k{fill:#4b4b5b;}.l{opacity:0.02;}.m{fill:#e7c7ca;}.n{fill:#c3c7d9;}.p{fill:none;stroke:#000;stroke-miterlimit:10;}.q{fill:#f2af5c;}</style><linearGradient id="a" x1="0.5" y1="1" x2="0.5" gradientUnits="objectBoundingBox"><stop offset="0" stop-color="gray" stop-opacity="0.251"/><stop offset="0.54" stop-color="gray" stop-opacity="0.122"/><stop offset="1" stop-color="gray" stop-opacity="0.102"/></linearGradient></defs><g transform="translate(-49.729 -0.008)"><path class="a" d="M187,698.711s12.729-2.037,20.366,6.958c0,0-5.6,4.413-17.651-1.7Z" transform="translate(-107.758 -301.438)"/><path class="b" d="M181.4,698.51s-8.122,10-4.122,21.124c0,0,6.619-2.649,7.34-16.141Z" transform="translate(-103.493 -301.436)"/><path class="b" d="M172.76,669.3s5.092-9.34,25.458,3.734c0,0-2.715,6.279-11.71,5.77S175.136,674.221,172.76,669.3Z" transform="translate(-102.149 -288.658)"/><path class="b" d="M163.059,670.283s-10.565-1.212-11.589,22.972c0,0,6.7,1.388,11.456-6.261S165.732,675.054,163.059,670.283Z" transform="translate(-93.764 -290.315)"/><path class="c" d="M636.188,670.36s-13.741,16.772-2.831,42.126l-109.71,47.581-10.529,2.206-4.849-21.215,3.243-26.773V699.654Z" transform="translate(-234.296 -290.349)"/><path class="b" d="M59.16,591.072,211.008,563.39l201.205,32.052L287.241,640.435Z" transform="translate(-3.715 -221.898)"/><path class="b" d="M59.16,591.072,211.008,563.39l201.205,32.052L287.241,640.435Z" transform="translate(-3.715 -221.898)"/><path class="b" d="M144.025,652.47s-14.2,26.906,2.164,51.758l225.178,48.794s-13.977-21.433.721-51.182Z" transform="translate(-88.58 -283.302)"/><path class="d" d="M156.466,667.86s-8.116,19.687,0,32.428" transform="translate(-94.311 -289.364)"/><path class="b" d="M376.488,783.5,502.2,729.86s7.031,1.515,2.485,6.667-125.772,52.127-125.772,52.127l-227.6-53.946Z" transform="translate(-93.701 -313.784)"/><path class="d" d="M376.488,783.5,502.2,729.86s7.031,1.515,2.485,6.667-125.772,52.127-125.772,52.127l-227.6-53.946Z" transform="translate(-93.701 -310.753)"/><path class="d" d="M502.309,742.86s-12.123,14.547,0,36.368" transform="translate(-229.826 -318.904)"/><rect class="d" width="57.322" height="0.606" transform="translate(276.799 441.85) rotate(-18.45)"/><rect class="d" width="69.845" height="0.606" transform="translate(276.778 446.73) rotate(-20.82)"/><rect class="d" width="80.955" height="0.606" transform="translate(277.143 452.482) rotate(-22.26)"/><rect class="d" width="93.187" height="0.606" transform="translate(278.017 457.554) rotate(-24.31)"/><rect class="d" width="101.921" height="0.606" transform="matrix(0.916, -0.401, 0.401, 0.916, 278.691, 460.023)"/><rect class="d" width="121.966" height="0.606" transform="translate(280.101 464.168) rotate(-23.36)"/><path class="e" d="M152.23,599.367,258.909,576.94,323.9,589.366l-87.416,28.185Z" transform="translate(-40.372 -227.235)"/><path class="b" d="M648.99,659.69s5.516,2.224,2.279,5.661S524,704.683,524,704.683Z" transform="translate(-240.491 -286.146)"/><path class="c" d="M735.482,574.18s-13.735,16.766-2.825,42.126l-109.71,47.581-10.529,2.218-4.849-21.215,3.291-26.767v-14.65Z" transform="translate(-273.407 -252.466)"/><path class="f" d="M158.46,494.886,310.3,467.21l201.212,32.052L386.541,544.255Z" transform="translate(-42.826 -184.016)"/><path class="f" d="M243.283,556.29s-14.208,26.906,2.158,51.758l225.178,48.794s-13.971-21.451.746-51.188Z" transform="translate(-127.673 -245.42)"/><path class="d" d="M243.283,556.29s-14.208,26.906,2.158,51.758l225.178,48.794s-13.971-21.451.746-51.188l-71.208-15.414Z" transform="translate(-127.673 -245.42)"/><path class="d" d="M255.758,571.68s-8.11,19.681,0,32.428" transform="translate(-133.42 -251.482)"/><path class="f" d="M475.778,687.323,601.5,633.68s7.025,1.515,2.479,6.667S478.2,692.475,478.2,692.475L250.6,638.529Z" transform="translate(-132.808 -275.902)"/><path class="d" d="M475.778,687.323,601.5,633.68s7.025,1.515,2.479,6.667S478.2,692.475,478.2,692.475L250.6,638.529Z" transform="translate(-132.808 -275.902)"/><path class="d" d="M601.6,646.68s-12.123,14.547,0,36.368" transform="translate(-268.933 -281.022)"/><rect class="d" width="57.322" height="0.606" transform="translate(336.986 383.558) rotate(-18.45)"/><rect class="d" width="69.845" height="0.606" transform="translate(336.974 388.436) rotate(-20.82)"/><rect class="d" width="80.955" height="0.606" transform="translate(337.329 394.18) rotate(-22.26)"/><rect class="d" width="93.187" height="0.606" transform="translate(338.211 399.253) rotate(-24.31)"/><rect class="d" width="101.921" height="0.606" transform="matrix(0.916, -0.401, 0.401, 0.916, 338.875, 401.714)"/><rect class="d" width="121.966" height="0.606" transform="translate(340.29 405.859) rotate(-23.36)"/><path class="g" d="M251.53,503.187,358.209,480.76,423.2,493.186l-87.416,28.185Z" transform="translate(-79.483 -189.353)"/><path class="f" d="M748.3,563.51s5.51,2.224,2.279,5.655S623.33,608.5,623.33,608.5Z" transform="translate(-279.614 -248.264)"/><path class="c" d="M744.894,464.15s-13.741,30.107-2.831,55.461l-109.71,34.246-10.5,2.224L617,534.867l3.243-26.773v-14.65Z" transform="translate(-277.121 -209.129)"/><path class="a" d="M167.89,384.862,319.738,357.18,520.95,389.232,395.971,434.225Z" transform="translate(-46.54 -140.679)"/><path class="a" d="M252.744,446.26s-14.226,26.906,2.14,51.758l225.178,48.794s-13.977-21.451.739-51.182Z" transform="translate(-131.394 -202.083)"/><path class="d" d="M252.744,446.26s-14.226,26.906,2.14,51.758l225.178,48.794s-13.977-21.451.739-51.182Z" transform="translate(-131.394 -202.083)"/><path class="d" d="M265.2,461.65s-8.116,19.687,0,32.428" transform="translate(-137.136 -208.144)"/><path class="a" d="M485.218,580.444,610.93,540.136s7.031,1.515,2.485,6.667S487.642,585.6,487.642,585.6L260.04,531.65Z" transform="translate(-136.526 -235.715)"/><path class="d" d="M485.218,580.444,610.93,540.136s7.031,1.515,2.485,6.667S487.642,585.6,487.642,585.6L260.04,531.65Z" transform="translate(-136.526 -235.715)"/><path class="d" d="M611.039,536.65s-12.123,14.547,0,36.368" transform="translate(-272.651 -237.685)"/><rect class="d" width="57.322" height="0.606" transform="translate(342.71 316.865) rotate(-18.45)"/><rect class="d" width="69.845" height="0.606" transform="translate(342.693 321.745) rotate(-20.82)"/><rect class="d" width="80.955" height="0.606" transform="translate(343.043 327.492) rotate(-22.26)"/><rect class="d" width="93.187" height="0.606" transform="translate(343.933 332.56) rotate(-24.31)"/><rect class="d" width="101.921" height="0.606" transform="matrix(0.916, -0.401, 0.401, 0.916, 344.601, 335.027)"/><rect class="d" width="121.966" height="0.606" transform="translate(346.013 339.176) rotate(-23.36)"/><path class="e" d="M260.96,393.157,367.639,370.73l64.989,12.426-87.416,28.185Z" transform="translate(-83.197 -146.016)"/><path class="a" d="M757.732,453.48s5.516,2.225,2.279,5.661S632.76,498.473,632.76,498.473Z" transform="translate(-283.328 -204.927)"/><path class="h" d="M669.951,272.11c-3.964-10.771-25.785-11.783-35.253-9.037-6.728,1.958-20.912,4.164-28.488,5.273l-.491-.467c.982-.291,1.006-1.006.885-2.067a32.335,32.335,0,0,1,.061-4.194c4.643,1.443,8.777-1.97,8.777-1.97h0c5.455-2.425,3.988-12.8,5.031-15.638.782-2.121,1.624-14.62,2-20.851h.079l.042-2.091c.055-.9.079-1.43.079-1.43s.533-15.238,1.576-18.323c.97-2.837,1.758-17.129,1.879-19.4v-.3l-.079-1.321c.055-.964.079-2.037.073-3.164,0-5.182-.539-11.71-.606-12.765v-.552c.042-2.212-.236-13.292-9.662-17.481-3.473-1.552-7.649-3.4-11.692-5.2-1.042-9-3.425-17.954-3.219-27.021,0-1.364.121-2.728.255-4.085,0,.394-.042.794-.048,1.212v2.643c.358-11.341,4.643-22.742,4.243-33.84-.036,1.085-.115,2.176-.218,3.267a35.234,35.234,0,0,0-1.164-11.147,6.6,6.6,0,0,0-1.9-3.455,7.837,7.837,0,0,0-3.322-1.315,66.8,66.8,0,0,0-8.722-1.624,13.469,13.469,0,0,0-1.964-3.813c-6.146-8.437-15.25-16.366-26.015-18.184-5.4-.909-11.614-.152-15.287,3.71a11.469,11.469,0,0,0-1.079,1.091c-1.976,2.358-2.825,5.455-4.849,7.807-.133.158-.285.3-.43.455-3.964,3.546-10.141,4.285-14.547,7.468a17.465,17.465,0,0,0-2.176,1.9,36.9,36.9,0,0,0-4.752,5.776c-1.982,2.788-4.019,5.692-4.649,9.019-1.267,6.667,3.273,12.989,4.116,19.7,1.879,15.014-14.735,28.337-11.589,43.151a19.76,19.76,0,0,0,5.346,9.6c-6.48,5.867-12,11.559-12,11.559v.339h-1.024l.1,1.212h-.1l.564,6.577-.564,9.577v.9h.036c.188,3.51.933,16.129,1.818,18.79,1.043,3.085,1.57,18.323,1.57,18.323s1.152,21.536,2.206,24.385-.442,13.2,5.031,15.638h0a11.517,11.517,0,0,0,5.5,2.279c-.279,2.267-.1,3.91.8,4.425a2.643,2.643,0,0,0,1.273.364,13.5,13.5,0,0,0-.988,1.727,25.676,25.676,0,0,1-6.352-1.5c-5.879-2.425-25.391-7.88-31.058-4.043s-19.305,7.316-13.008,22.76,9.231,15.832,9.231,15.832a22.425,22.425,0,0,1,5.037,5.061C482.153,310.5,499.773,317,504.18,317a43.147,43.147,0,0,1,5.607.279s-4.782,4.194-4.146,6.631-1.455,21.942-1.455,21.942,4.849,4.885,6.922-1.521l.073.1c.388.527,2.485,2.909,6.431-.1a36.052,36.052,0,0,1,5.128-3.249l19.105-2.7a54.076,54.076,0,0,1,5.983-.042c3.031.248,6.007-1.546,7.88-2.934,3.958,1.5,8.407,3.146,10.522,3.746,4.291,1.212,24.015,6.5,28.628,4.849a6.408,6.408,0,0,0,2.485-1.77l4.4.139-2.061.412s4.013.067,9.468.139l-.23.133,6.843-.061c10.013.091,21.263.121,22.742-.212,2.315-.515,14.347-.152,17.893,0h.988s13.22-2.637,7.765-16.05c-4.194-10.3-17.087-13.3-22.809-14.123,1.612-.321,3-.57,3.922-.715,3.994-.606,11.753-4.243,12.383-5.486s7.134-4.849,8.813-6.9S673.933,282.881,669.951,272.11Zm-109.5,30.143-.649.212-.436.145-.836.824c-.667-.449-1.382-.921-2.128-1.406C557.719,302.108,559.071,302.187,560.453,302.253Zm57.77,17.081Z" transform="translate(-217.004 -43.42)"/><path class="i" d="M686.65,316.424s9.274,24.245,14.547,21.821,3.843-12.729,4.849-15.553,2.121-24.245,2.121-24.245.509-15.153,1.515-18.22c.933-2.819,1.691-17.032,1.818-19.269v-.3l-1-17.578-5.661-1.412-13.129,4.849L689.893,256.9l-.709,4.055-.3,1.727Z" transform="translate(-304.554 -121.501)"/><path class="d" d="M691.69,358.3s8.85,7.243,11.517,7.88,4.3,6.286,4.3,6.286" transform="translate(-306.539 -167.438)"/><path class="i" d="M550.851,318.174s-9.274,24.245-14.547,21.821-3.843-12.729-4.849-15.553-2.121-24.245-2.121-24.245-.509-15.153-1.515-18.22c-.933-2.819-1.691-17.032-1.818-19.269v-.3l1.006-17.578,5.661-1.412,13.129,4.849,1.818,10.383.709,4.055.3,1.727Z" transform="translate(-241.279 -122.191)"/><rect class="j" width="20.699" height="32.264" transform="translate(349.262 66.235)"/><rect class="d" width="20.699" height="32.264" transform="translate(349.262 66.235)"/><path class="k" d="M557.73,405.337s-7.074,7.777-4.449,9.189,19.6,27.882,19.6,27.882,55.764,6.867,66.281-3.437,10.3-28.712,10.3-28.712-8.449,1.818-9.371.83-5.983-5.752-5.983-5.752S562.579,401,557.73,405.337Z" transform="translate(-251.794 -185.205)"/><path class="l" d="M557.73,405.337s-7.074,7.777-4.449,9.189,19.6,27.882,19.6,27.882,55.764,6.867,66.281-3.437,10.3-28.712,10.3-28.712-8.449,1.818-9.371.83-5.983-5.752-5.983-5.752S562.579,401,557.73,405.337Z" transform="translate(-251.794 -185.205)"/><path class="i" d="M648.256,208.169l-18.184,14.547-5.5.4-2.018.145-33.9,2.485-35.156-2.57-5.231-.382-6.667-.485L527.66,208.975a238.738,238.738,0,0,1,18.511-17.705c3.406-2.819,6.625-5.1,8.971-5.995l.4-.139a9.977,9.977,0,0,0,3.843-2.679c6.825-7.037,13.135-24.4,13.135-24.4s30.107-15.553,26.47,4.849,13.535,15.359,13.535,15.359l5.661,2.582,2.237,1.024,5.7,2.612,12.868,5.9C649.092,195.034,648.256,208.169,648.256,208.169Z" transform="translate(-241.933 -86.334)"/><circle class="d" cx="27.076" cy="27.076" r="27.076" transform="translate(318.234 34.183)"/><path class="d" d="M647.645,248.716H526v-.3l1.006-17.578a238.741,238.741,0,0,1,18.511-17.705l76.373-3.031,3.552-3.746,12.868,5.9c10.1,4.643,9.292,17.778,9.292,17.778S648.984,245.262,647.645,248.716Z" transform="translate(-241.279 -107.594)"/><path class="m" d="M647.645,247.716H526v-.3l1.006-17.578a238.738,238.738,0,0,1,18.511-17.705l76.373-3.031,3.552-3.746,12.868,5.9c10.1,4.643,9.292,17.778,9.292,17.778S648.984,244.262,647.645,247.716Z" transform="translate(-241.279 -107.2)"/><path class="d" d="M588.867,190.479s19.19,24.451,44.751-.5,2.831,55.661,2.831,55.661l-55.158,6.546Z" transform="translate(-263.056 -99.253)"/><path class="m" d="M588.867,192.479s19.19,24.451,44.751-.5,2.831,55.661,2.831,55.661l-55.158,6.546Z" transform="translate(-263.056 -100.041)"/><path class="d" d="M629.8,202.35l2.031,30.967,2.176,10.3,1.661,7.88s4.243,60.613,3.031,63.644.606,5.455.861,7.068-.255,5.661-.055,7.48,0,2.625-4.643,1.976-11.116-1.776-11.116-1.776-16.366,1.212-22.021-.806-16.366-2.024-16.366-2.024-16.166.406-21.415-.2-8.086,6.467-11.517,4.443,4.037-21.615,6.461-27.276-3.231-20-3.231-20l7.274-40.35,1.618-9.147V205.775l.4-.139a9.976,9.976,0,0,0,3.843-2.679l1.818,28.937,56.976,2.024V201.35" transform="translate(-251.338 -105.621)"/><path class="m" d="M629.8,200.35l2.031,30.967,2.176,10.3,1.661,7.88s4.243,60.613,3.031,63.644.606,5.455.861,7.068-.255,5.661-.055,7.48,0,2.625-4.643,1.976-11.116-1.776-11.116-1.776-16.366,1.212-22.021-.806-16.366-2.024-16.366-2.024-16.166.406-21.415-.2-8.086,6.467-11.517,4.443,4.037-21.615,6.461-27.276-3.231-20-3.231-20l7.274-40.35,1.618-9.147V203.775l.4-.139a9.976,9.976,0,0,0,3.843-2.679l1.818,28.937,56.976,2.025V199.35" transform="translate(-251.338 -104.833)"/><path class="d" d="M630.84,75.821a6.679,6.679,0,0,0-1.818-3.431,7.443,7.443,0,0,0-3.2-1.309,63.233,63.233,0,0,0-8.413-1.612,13.468,13.468,0,0,0-1.818-3.776c-5.94-8.389-14.729-16.3-25.07-18.087-5.413-.94-11.686-.1-15.153,4.17-1.9,2.346-2.721,5.455-4.643,7.758-3.7,4.473-10.389,5.025-15.056,8.486-2.491,1.818-4.3,4.455-6.061,7.013-1.909,2.77-3.873,5.655-4.479,8.965-1.212,6.613,3.158,12.917,3.964,19.59,1.818,14.929-14.184,28.173-11.159,42.9,1.764,8.589,9.7,14.638,17.905,17.705,2.891,1.085,6.195,2.164,7.546,4.94.606,1.212.709,2.612,1.279,3.837,1.915,4.085,8.213,4.243,11.6,1.267s4.449-7.789,4.849-12.28c1.624-19.614-6.231-38.992-5.316-58.655.273-5.946,1.946-12.692,7.274-15.384,7.171-3.637,15.8,2.425,23.688,1.267a46.994,46.994,0,0,1,2.267,28.676c-1.255,5.231-3.425,10.3-3.582,15.7-.236,8.213,4.194,15.717,8.025,22.978a12.226,12.226,0,0,1,1.618,4.431,10.679,10.679,0,0,1-.867,4.637c-2.164,5.825-5.9,11.232-6.322,17.432a2.819,2.819,0,0,0,.455,2.073,2.606,2.606,0,0,0,1.564.7c6.546,1.121,12.208-4.679,15.4-10.5a49.242,49.242,0,0,0,6.073-20.924c.661-12.341-3.764-24.482-3.491-36.835C628.209,103.509,634.555,89.368,630.84,75.821Z" transform="translate(-245.828 -44.929)"/><path class="j" d="M631.84,74.821a6.679,6.679,0,0,0-1.818-3.431,7.443,7.443,0,0,0-3.2-1.309,63.234,63.234,0,0,0-8.413-1.612,13.467,13.467,0,0,0-1.818-3.776c-5.94-8.389-14.729-16.3-25.07-18.087-5.413-.94-11.686-.1-15.153,4.17-1.9,2.346-2.722,5.455-4.643,7.758-3.7,4.473-10.389,5.025-15.056,8.486-2.491,1.818-4.3,4.455-6.061,7.013-1.909,2.77-3.873,5.655-4.479,8.965-1.212,6.613,3.158,12.917,3.964,19.59,1.818,14.929-14.184,28.173-11.159,42.9,1.764,8.589,9.7,14.638,17.905,17.705,2.891,1.085,6.195,2.164,7.546,4.94.606,1.212.709,2.612,1.279,3.837,1.915,4.085,8.213,4.243,11.6,1.267s4.449-7.789,4.849-12.28c1.624-19.614-6.231-38.992-5.316-58.655.273-5.946,1.946-12.692,7.274-15.384,7.171-3.637,15.8,2.425,23.688,1.267a46.994,46.994,0,0,1,2.267,28.676c-1.255,5.231-3.425,10.3-3.582,15.7-.236,8.213,4.194,15.717,8.025,22.978a12.227,12.227,0,0,1,1.618,4.431,10.681,10.681,0,0,1-.867,4.637c-2.164,5.825-5.9,11.232-6.322,17.432a2.819,2.819,0,0,0,.455,2.073,2.607,2.607,0,0,0,1.564.7c6.546,1.121,12.208-4.679,15.4-10.5a49.242,49.242,0,0,0,6.073-20.924c.661-12.341-3.764-24.482-3.491-36.835C629.209,102.509,635.556,88.368,631.84,74.821Z" transform="translate(-246.222 -44.535)"/><path class="n" d="M581.79,481.643l24.045.77-3.449-17.832-18.42,1.752Z" transform="translate(-209.562 -182.98)"/><path class="k" d="M720.688,442.006c-1.618,2.018-7.88,5.655-8.486,6.867s-8.08,4.849-11.923,5.455-15.959,3.237-18.184,4.649c-1.594,1.018-14.39,4.243-22.8,6.031a64.714,64.714,0,0,1-6.9,1.243c-3.637.2-43.435-13.335-43.435-13.335l7.674-7.88.424-.145c2.17-.733,12.2-4.122,17.76-5.734,6.267-1.818,13.541-9.292,13.541-9.292s10.7-3.637,12.123-4.043-3.637-14.141-3.637-14.141,23.233-3.225,32.325-5.958,30.107-1.721,33.943,8.989S722.331,439.987,720.688,442.006Z" transform="translate(-273.954 -185.609)"/><path class="m" d="M585.275,508.835s-4.643,4.849-9.292,4.449-20.906,1.212-20.906,1.212a32.59,32.59,0,0,0-8.189,4.746c-3.8,2.994-5.819.606-6.195.1l-.067-.1c-2.024,6.37-6.667,1.515-6.667,1.515s2.018-19.4,1.4-21.821,3.994-6.589,3.994-6.589l5.455-1.388,13.82-3.54,19.8,6.867Z" transform="translate(-244.414 -218.294)"/><path class="d" d="M544.786,493.26l-4.091,28.379-.067-.1c-2.024,6.37-6.667,1.515-6.667,1.515s2.018-19.4,1.4-21.821,3.994-6.589,3.994-6.589Z" transform="translate(-244.414 -220.595)"/><path class="d" d="M599,360.08s10.7,3.637,20,0" transform="translate(-270.031 -168.139)"/><path class="d" d="M659.29,371.42s4.443,2.218,7.88,0" transform="translate(-293.778 -172.606)"/><path class="d" d="M659.29,379.438s7.474,1,8.892-1.018" transform="translate(-293.778 -175.363)"/><path class="d" d="M655.29,395.993s14.038-1.818,17.523-4.243" transform="translate(-292.202 -180.613)"/><path class="d" d="M584.62,391.75s7.88,4.443,13.741,4.243" transform="translate(-264.368 -180.613)"/><path class="d" d="M659.289,491.3a64.706,64.706,0,0,1-6.9,1.243c-3.637.2-43.435-13.335-43.435-13.335l7.674-7.88.424-.145c1.212.855,2.206,1.588,2.916,2.146,3.34,2.631,6.564-.806,7.777-.806s11.717,8.686,11.717,8.686,9.7,2.225,11.317,4.243,7.274,1.618,8.28,3.031A5.406,5.406,0,0,1,659.289,491.3Z" transform="translate(-273.95 -211.898)"/><path class="k" d="M530.165,413.089s-9.807.564-15.462-1.818-24.445-7.88-29.9-4.019-18.59,7.274-12.529,22.633,8.892,15.759,8.892,15.759a21.882,21.882,0,0,1,4.849,5.031c1.818,2.831,18.79,9.292,23.033,9.292s11.717,0,22.221,7.274,20,8.086,20,8.086,13.335,5.455,17.487,6.667,23.124,6.461,27.573,4.849S603.6,475.12,603.6,475.12s2.018-9.092,1.006-10.5-6.667-1.012-8.28-3.031-11.316-4.243-11.316-4.243-10.48-8.692-11.692-8.692-4.437,3.431-7.777.806a177.408,177.408,0,0,0-20.918-13.335C536.954,432.079,530.165,413.089,530.165,413.089Z" transform="translate(-219.502 -186.192)"/><path class="d" d="M536.27,427.268a11.577,11.577,0,0,1,9.935,2.625c4.849,4.043,21.166,12.159,21.166,12.159" transform="translate(-245.324 -194.51)"/><path class="d" d="M719.618,427S698,430.273,693.96,434.716" transform="translate(-307.433 -194.497)"/><path class="m" d="M741.184,517.727h-.952c-3.419-.121-15-.485-17.232,0-2.625.606-37.38,0-37.38,0l6.795-1.412s-2.521-8.837-.921-9.571c0,0-9.092-5.989-2.237-10.031a21.267,21.267,0,0,1,14.244-2.34l17.208-5.831,3.3-1.121s19.4,1.012,24.645,14.347S741.184,517.727,741.184,517.727Z" transform="translate(-304.148 -218.294)"/><path class="d" d="M763.985,517.746h-.952c5.643-4.655,18.408-18.826-19.523-29.155l3.3-1.121s19.4,1.012,24.645,14.347S763.985,517.746,763.985,517.746Z" transform="translate(-326.949 -218.314)"/><circle class="k" cx="1.061" cy="1.061" r="1.061" transform="translate(400.316 281.6)"/><circle class="k" cx="1.061" cy="1.061" r="1.061" transform="translate(394.152 283.351)"/><g class="o" transform="translate(292.493 38.123)"><path d="M636.315,128.585a47.03,47.03,0,0,0-3.479-19.481c-7.88,1.176-16.511-4.9-23.688-1.267-5.31,2.691-6.977,9.437-7.274,15.384-.073,1.57-.085,3.14-.055,4.71,0-.558,0-1.121.055-1.679.279-5.946,1.946-12.692,7.274-15.384,7.177-3.637,15.8,2.425,23.688,1.267a46.9,46.9,0,0,1,3.479,16.45Z" transform="translate(-563.629 -106.449)"/><path d="M555.244,128.266a20.2,20.2,0,0,0-.079-3.964c-.642-5.334-3.558-10.432-4.085-15.632-.679,6.273,3.315,12.3,4.085,18.663A3.785,3.785,0,0,1,555.244,128.266Z" transform="translate(-543.62 -107.24)"/><path d="M582.384,219.156c-.376,4.5-1.437,9.3-4.849,12.286s-9.7,2.819-11.6-1.267c-.606-1.212-.7-2.625-1.285-3.837-1.346-2.776-4.655-3.855-7.546-4.94-8.213-3.073-16.135-9.092-17.9-17.705a18.606,18.606,0,0,1-.321-2.364,19.1,19.1,0,0,0,.321,5.395c1.764,8.589,9.7,14.632,17.9,17.705,2.891,1.085,6.2,2.164,7.546,4.94.606,1.212.709,2.612,1.285,3.837,1.909,4.085,8.207,4.243,11.6,1.267s4.443-7.789,4.849-12.286a69.258,69.258,0,0,0,.188-7.116C582.572,216.447,582.493,217.8,582.384,219.156Z" transform="translate(-538.823 -143.735)"/><path d="M687.93,137.332v2.625c.339-11.274,4.473-22.609,4.067-33.646C691.682,116.517,688.16,126.955,687.93,137.332Z" transform="translate(-597.551 -106.31)"/><path d="M660.292,214.852a7.816,7.816,0,0,0,.139-2.188,12.121,12.121,0,0,0-1.618-4.431c-3.5-6.667-7.5-13.492-7.971-20.893,0,.315-.042.606-.049.946-.242,8.207,4.188,15.717,8.019,22.978a14.552,14.552,0,0,1,1.479,3.588Z" transform="translate(-582.921 -138.225)"/><path d="M678.355,217.472a49.322,49.322,0,0,1-6.116,20.924c-3.2,5.825-8.855,11.626-15.408,10.5a2.576,2.576,0,0,1-1.564-.709,1.514,1.514,0,0,1-.285-.473c-.073.473-.133.952-.17,1.437a2.794,2.794,0,0,0,.455,2.067,2.576,2.576,0,0,0,1.564.709c6.552,1.121,12.207-4.679,15.408-10.5a49.323,49.323,0,0,0,6.116-20.924c.073-1.418.079-2.831.036-4.243C678.38,216.666,678.38,217.066,678.355,217.472Z" transform="translate(-584.492 -149.616)"/></g><path class="p" d="M695.31,514.227s15.341,6.437,25.458-7.807" transform="translate(-307.965 -225.778)"/><path class="p" d="M700.29,535.455s12.529-8.146,28.488-.267" transform="translate(-309.926 -235.756)"/><path class="p" d="M561.93,530.768s5.261-11.868,19.311-2.819" transform="translate(-255.431 -232.918)"/><path class="d" d="M533.79,237.544l10.729-9.7s41.6-2.728,43.32,11.413c0,0,14.747-16.766,45.763-13.032l13.123,10.45-36.271,15.917L575.207,264.82,549.246,253.2Z" transform="translate(-244.347 -115.205)"/><path class="c" d="M533.79,238.544l10.729-9.7s41.6-2.728,43.32,11.413c0,0,14.747-16.766,45.763-13.032l13.123,10.45-36.271,15.917L575.207,265.82,549.246,254.2Z" transform="translate(-244.347 -115.599)"/><path class="d" d="M437.38,204.83l4.746,56.776,50.309,2.528L490.253,207.6l-.042-.952Z" transform="translate(-152.683 -80.673)"/><path class="q" d="M437.38,202.83l4.746,56.776,50.309,2.528L490.253,205.6l-.042-.952Z" transform="translate(-152.683 -79.885)"/><path class="d" d="M601.607,202.83l-51.9,7.783v57.031l50.715-7.328Z" transform="translate(-196.927 -79.885)"/><path class="q" d="M601.607,200.83l-51.9,7.783v57.031l50.715-7.328Z" transform="translate(-196.927 -79.098)"/><path class="e" d="M596.924,223.79l-28.034,3.116.612,9.553,27.4-2.994Z" transform="translate(-204.481 -88.141)"/><path class="i" d="M537.5,357.223l2.855,7.68s4.243,3.637,8.886,1.818,8.692-2.722,10.71-4.491,4.849-10.662,4.849-10.662,2.831-9.7,5.655-12.123,10.3-35.828,0-32.561-18.184,33.574-18.184,33.574a7.187,7.187,0,0,1-4.443,2.425c-2.625.206-7.88-.406-8.892,1.818S534.468,352.78,537.5,357.223Z" transform="translate(-245.328 -147.099)"/><path class="d" d="M628.4,256.614a17.457,17.457,0,0,1-15.22-3.794l2.188,56.528a15.426,15.426,0,0,0,13.032,4.3Z" transform="translate(-275.617 -125.893)"/><path class="q" d="M628.4,254.614a17.456,17.456,0,0,1-15.22-3.794l2.188,56.528a15.426,15.426,0,0,0,13.032,4.3Z" transform="translate(-275.617 -125.105)"/><path class="d" d="M628.4,254.614a17.456,17.456,0,0,1-15.22-3.794l2.188,56.528a15.426,15.426,0,0,0,13.032,4.3Z" transform="translate(-275.617 -125.105)"/><path class="d" d="M640.29,242.909s21.112-6.455,26.615-5.546" transform="translate(-286.294 -119.77)"/><path class="d" d="M585.812,239.5s-20.463-4.849-23.882-3.473" transform="translate(-255.431 -119.183)"/><path class="d" d="M662.25,245.7s14.117-5.176,19.22-2.715" transform="translate(-294.944 -121.759)"/><path class="d" d="M650.52,455.229a46.412,46.412,0,0,1,6.958-4.322,113.517,113.517,0,0,0,10.3-6.3" transform="translate(-290.324 -201.433)"/><path class="d" d="M551.65,360.08s-8.856,7.243-11.516,7.88-4.3,6.286-4.3,6.286" transform="translate(-245.151 -168.139)"/><path class="i" d="M690.493,355.455l-2.825,7.7s-4.243,3.637-8.892,1.818-8.686-2.722-10.71-4.491-4.849-10.662-4.849-10.662-2.825-9.7-5.655-12.123-10.3-35.828,0-32.561,18.184,33.574,18.184,33.574a7.187,7.187,0,0,0,4.443,2.425c2.625.206,7.88-.406,8.892,1.818S693.524,351.03,690.493,355.455Z" transform="translate(-291.019 -146.409)"/><path class="d" d="M707.15,364.94s5.789,3.722,5.764,8.171" transform="translate(-312.628 -170.053)"/><circle class="i" cx="27.076" cy="27.076" r="27.076" transform="translate(318.331 32.855)"/><path class="j" d="M589.358,111.751c3.285-.515,6.164-2.425,9.3-3.522,7.025-2.467,14.8-.776,21.906,1.449,2.728.855,5.5,1.818,8.359,1.818s5.9-1.17,7.358-3.637a8.222,8.222,0,0,0-.048-7.595,21.391,21.391,0,0,0-4.946-6.1c-6.3-5.952-14.123-11.517-22.772-10.91a31.34,31.34,0,0,0-10.007,2.867,110.32,110.32,0,0,0-11.747,5.916c-2.915,1.691-8.316,3.952-10,7.043C572.95,106.041,583.418,112.684,589.358,111.751Z" transform="translate(-260.953 -59.087)"/><path class="d" d="M636.283,116.561c-1.461,2.467-4.5,3.637-7.358,3.637a28.431,28.431,0,0,1-8.365-1.782c-7.11-2.225-14.875-3.922-21.906-1.449-3.134,1.1-6.019,3.031-9.3,3.516-4.788.752-12.5-3.419-13.335-8.722-.939,6.128,8,11.377,13.335,10.541,3.285-.515,6.17-2.425,9.3-3.516,7.031-2.473,14.8-.776,21.906,1.449,2.734.855,5.5,1.818,8.365,1.782s5.9-1.164,7.358-3.637a7.1,7.1,0,0,0,.849-4.431,6.534,6.534,0,0,1-.849,2.612Z" transform="translate(-260.952 -70.334)"/></g></svg>