<svg xmlns="http://www.w3.org/2000/svg" width="132" height="131.299" viewBox="0 0 132 131.299"><defs><style>.a{fill:#f5f8f9;}.b{fill:#e8edf2;}.c{fill:#0ab69f;}.d{fill:#01998d;}.e{fill:#fe7d43;}.f{fill:#fd6930;}</style></defs><g transform="translate(0 -15.918)"><g transform="translate(0 15.918)"><path class="a" d="M148.862,55.362c5.3,0,9.6,4.7,9.6,10.508V176.152c0,5.8-4.3,10.508-9.6,10.508H36.06c-5.3,0-9.6-4.7-9.6-10.508V65.87c0-5.8,4.3-10.508,9.6-10.508Z" transform="translate(-26.461 -55.362)"/><path class="b" d="M149.9,55.473a11.537,11.537,0,0,1,.131,1.722l.413,75.887a44.21,44.21,0,0,1-43.956,44.45l-78.858.453c-.24,0-.478-.013-.714-.032.75,4.984,4.7,8.786,9.468,8.786h112.8c5.3,0,9.6-4.7,9.6-10.508V65.949c0-5.54-3.917-10.076-8.885-10.476Z" transform="translate(-26.785 -55.441)"/><path class="a" d="M134.612,55.362h78.8" transform="translate(-103.515 -55.362)"/></g><path class="c" d="M148.862,55.362H36.06c-5.3,0-9.6,4.7-9.6,10.508V84.348h132V65.87C158.461,60.067,154.163,55.362,148.862,55.362Z" transform="translate(-26.461 -39.444)"/><path class="d" d="M454.638,55.473a11.573,11.573,0,0,1,.13,1.722q.074,13.616.148,27.232h8.606V65.949c.041-4.962-3.617-10.083-8.884-10.476Z" transform="translate(-331.523 -39.523)"/><g transform="translate(24.727 62.115)"><path class="e" d="M146.649,271.231h-.056c-6.949.087-14.383.137-19.694.122,3.039-4.006,7.836-10.441,15-20.673a39.506,39.506,0,0,0,6.447-13.3q.05-.215.078-.434l.268-2.1a4.371,4.371,0,0,0,.035-.555,18.264,18.264,0,0,0-36.183-3.535,4.377,4.377,0,0,0,8.59,1.687,9.51,9.51,0,0,1,18.836,1.6l-.2,1.565a31.54,31.54,0,0,1-5.043,10.059c-8.617,12.312-13.761,19.047-16.524,22.666-1.179,1.544-1.958,2.564-2.48,3.324a5.637,5.637,0,0,0-1.137,4.971,4.647,4.647,0,0,0,3.027,3.054c.59.2,1.335.445,11.682.445,4.1,0,9.708-.039,17.412-.136a4.377,4.377,0,0,0-.055-8.755Z" transform="translate(-112.459 -216.027)"/><g transform="translate(2.188 0)"><path class="f" d="M174.64,234.327a4.114,4.114,0,0,1-.035.518l-.268,2.1a4.127,4.127,0,0,1-.072.41,39.468,39.468,0,0,1-6.453,13.325c-5.384,7.694-9.433,13.24-12.4,17.222a2.159,2.159,0,0,0,1.735,3.451h.047c3.039-4.006,7.836-10.441,15-20.672a39.468,39.468,0,0,0,6.453-13.325c.031-.136.055-.272.072-.41l.268-2.1a4.167,4.167,0,0,0,.035-.518,18.236,18.236,0,0,0-20.455-18.164A18.286,18.286,0,0,1,174.64,234.327Z" transform="translate(-144.939 -216.028)"/><path class="f" d="M122.176,254.132a4.363,4.363,0,0,1-2.108,2.943,4.369,4.369,0,0,0,6.485-2.943,9.519,9.519,0,0,1,7.143-7.4,9.5,9.5,0,0,0-11.52,7.4Z" transform="translate(-120.068 -237.718)"/><path class="f" d="M212.143,408.017h-.056c-1.236.016-2.488.03-3.74.043a4.375,4.375,0,0,1-.527,8.711c-6.346.08-3.326.1,4.377,0a4.377,4.377,0,0,0-.054-8.754Z" transform="translate(-180.141 -352.814)"/></g><path class="e" d="M280.011,244.042a20,20,0,0,0-5.772.85,49.552,49.552,0,0,1,12.178-15.268,4.377,4.377,0,0,0-5.235-7.016,58.987,58.987,0,0,0-21,38.412,20.07,20.07,0,1,0,19.831-16.977Zm0,31.386a11.313,11.313,0,0,1-11.193-12.971c.006-.041.015-.081.02-.123,0-.008,0-.016,0-.025a11.315,11.315,0,1,1,11.17,13.119Z" transform="translate(-217.535 -220.098)"/><g transform="translate(46.783 1.645)"><path class="f" d="M313.093,223.512a4.377,4.377,0,0,1-.889,6.116,47.233,47.233,0,0,0-9.531,10.784,2.369,2.369,0,0,0,2.124,3.662l.05,0a49.261,49.261,0,0,1,11.735-14.444,4.376,4.376,0,0,0-4.81-7.293A4.364,4.364,0,0,1,313.093,223.512Z" transform="translate(-294.482 -221.749)"/><path class="f" d="M324.3,299.3a20.04,20.04,0,0,0-2.194.121,20.068,20.068,0,0,1,.006,39.9A20.069,20.069,0,1,0,324.3,299.3Z" transform="translate(-308.611 -277)"/><path class="f" d="M279.683,339.282c0-.008,0-.016,0-.025a11.344,11.344,0,0,1,8.983-9.3,11.311,11.311,0,0,0-13.36,9.3c0,.008,0,.016,0,.025,0,.042-.014.082-.02.123a11.313,11.313,0,0,0,13.382,12.757,11.312,11.312,0,0,1-9-12.757C279.669,339.363,279.679,339.323,279.683,339.282Z" transform="translate(-275.164 -298.692)"/></g></g></g></svg>