<svg xmlns="http://www.w3.org/2000/svg" width="57" height="78.501" viewBox="0 0 57 78.501"><defs><style>.a{fill:#dbf5ff;}.b{fill:#a4ceff;}.c{fill:#59a7ff;}.d{fill:#b3ddff;}.e{fill:#ff5ca8;}.f{fill:#ff1786;}.g{fill:#ffb3e5;}.h{fill:#ff7cb9;}</style></defs><g transform="translate(-70.085)"><path class="a" d="M126.751,85.582,108.672,41.814V15.464l-10.315,0-10.315,0v24.6a9.011,9.011,0,0,1-.652,3.365L70.4,85.618a4.348,4.348,0,0,0,4.029,5.975h48.3A4.348,4.348,0,0,0,126.751,85.582Z" transform="translate(0 -13.092)"/><g transform="translate(78.357 0)"><path class="b" d="M161.642,4.741H126.385a2.37,2.37,0,1,1,0-4.741h35.257a2.37,2.37,0,0,1,0,4.741Z" transform="translate(-124.014 0)"/></g><g transform="translate(88.038 9.33)"><path class="c" d="M187.126,60.824h7.719a2.371,2.371,0,1,1,0,4.741h-7.719Z" transform="translate(-187.126 -60.824)"/></g><g transform="translate(88.038 19.069)"><path class="c" d="M187.126,124.315h7.368a2.371,2.371,0,1,1,0,4.741h-7.368Z" transform="translate(-187.126 -124.315)"/></g><path class="d" d="M265.971,40.026V15.464l-10.087,0V91.593h24.152a4.348,4.348,0,0,0,4.014-6.011l-17.4-42.116a9.009,9.009,0,0,1-.682-3.439Z" transform="translate(-157.299 -13.092)"/><path class="c" d="M273.284,0h-17.4V4.741h17.4a2.37,2.37,0,0,0,0-4.741Z" transform="translate(-157.299)"/><path class="e" d="M119.753,308.923a3.191,3.191,0,0,0,2.957,4.385h35.452a3.192,3.192,0,0,0,2.946-4.412l-9.858-24.315a1.4,1.4,0,0,0-1.3-.875H130.9a1.4,1.4,0,0,0-1.3.876Z" transform="translate(-41.851 -240.188)"/><path class="f" d="M265.4,283.706h-9.514v29.6H273.61a3.192,3.192,0,0,0,2.946-4.412L266.7,284.581A1.4,1.4,0,0,0,265.4,283.706Z" transform="translate(-157.299 -240.188)"/><path class="g" d="M183.842,384.223a4.022,4.022,0,1,1-4.022-4.026A4.024,4.024,0,0,1,183.842,384.223Z" transform="translate(-89.497 -321.878)"/><g transform="translate(103.865 51.944)"><ellipse class="h" cx="2.371" cy="2.373" rx="2.371" ry="2.373"/><ellipse class="h" cx="2.371" cy="2.373" rx="2.371" ry="2.373" transform="translate(1.607 11.335)"/></g></g></svg>