<svg xmlns="http://www.w3.org/2000/svg" width="85.736" height="85.736" viewBox="0 0 85.736 85.736"><defs><style>.a{fill:#ff9580;}.b{fill:#f66;}.c{fill:#9df;}.d{fill:#66b3ff;}.e{fill:#f0f7ff;}.f{fill:#dfe7f4;}.g{fill:#ffe14d;}.h{fill:#fb3;}</style></defs><g transform="translate(20.262)"><path class="a" d="M163.7,45.38H123.512A2.51,2.51,0,0,1,121,42.868V2.512A2.51,2.51,0,0,1,123.512,0H163.7a2.51,2.51,0,0,1,2.512,2.512V42.868A2.51,2.51,0,0,1,163.7,45.38Z" transform="translate(-121)"/></g><path class="b" d="M256,45.38h20.094a2.51,2.51,0,0,0,2.512-2.512V2.512A2.51,2.51,0,0,0,276.094,0H256Z" transform="translate(-213.132)"/><g transform="translate(0 7.747)"><g transform="translate(0 35.121)"><path class="c" d="M42.868,256l5.024,20.094-5.024,22.774H2.512A2.487,2.487,0,0,1,0,296.356V258.512A2.487,2.487,0,0,1,2.512,256Z" transform="translate(0 -256)"/></g><path class="d" d="M121,256h22.606v42.868H121V256Z" transform="translate(-100.738 -220.879)"/><g transform="translate(10.215)"><path class="e" d="M205.854,67.7,195.807,47.609a2.55,2.55,0,0,0-4.494,0L181.266,67.7a2.512,2.512,0,0,0,4.494,2.247l1.818-3.635h11.965l1.818,3.635a2.512,2.512,0,0,0,4.494-2.247Zm-15.765-6.412,3.471-6.942,3.471,6.942Z" transform="translate(-160.906 -46.265)"/><path class="e" d="M73.559,316H63.512A2.51,2.51,0,0,0,61,318.512v20.094a2.51,2.51,0,0,0,2.512,2.512H73.559a7.5,7.5,0,0,0,5.576-12.559A7.5,7.5,0,0,0,73.559,316Zm-7.535,5.024h7.535a2.512,2.512,0,0,1,0,5.024H66.024Zm7.535,15.071H66.024v-5.024h7.535a2.512,2.512,0,0,1,0,5.024Z" transform="translate(-61 -270.832)"/><path class="f" d="M123.512,316H121v5.024h2.512a2.512,2.512,0,1,1,0,5.024H121v5.024h2.512a2.512,2.512,0,1,1,0,5.024H121v5.024h2.512a7.5,7.5,0,0,0,5.576-12.559A7.5,7.5,0,0,0,123.512,316Z" transform="translate(-110.953 -270.832)"/></g></g><path class="g" d="M296.356,256H256v42.868h40.356a2.487,2.487,0,0,0,2.512-2.512V258.512A2.487,2.487,0,0,0,296.356,256Z" transform="translate(-213.132 -213.132)"/><path class="h" d="M377,298.868h20.094a2.51,2.51,0,0,0,2.512-2.512V258.512A2.51,2.51,0,0,0,397.094,256H377Z" transform="translate(-313.87 -213.132)"/><g transform="translate(52.915 52.915)"><path class="e" d="M328.559,341.118a12.559,12.559,0,1,1,8.885-21.436,2.513,2.513,0,0,1-3.562,3.547,7.459,7.459,0,0,0-5.323-2.205,7.535,7.535,0,0,0,0,15.071,7.459,7.459,0,0,0,5.323-2.205,2.513,2.513,0,0,1,3.562,3.547A12.465,12.465,0,0,1,328.559,341.118Z" transform="translate(-316 -316)"/></g><g transform="translate(63.13 52.915)"><g transform="translate(0 17.151)"><path class="f" d="M388.229,422.708a2.513,2.513,0,0,0-3.562-3.547A7.523,7.523,0,0,1,377,420.99v5.176a12.54,12.54,0,0,0,11.229-3.459Z" transform="translate(-377 -418.422)"/></g><path class="f" d="M379.344,316a12.565,12.565,0,0,0-2.344.223V321.4a7.522,7.522,0,0,1,7.667,1.83,2.513,2.513,0,0,0,3.562-3.547A12.465,12.465,0,0,0,379.344,316Z" transform="translate(-377 -316)"/></g><path class="f" d="M263.8,69.954a2.512,2.512,0,1,0,4.494-2.247L258.247,47.612A2.468,2.468,0,0,0,256,46.269v8.084l3.471,6.942H256v5.024h5.983Z" transform="translate(-213.132 -38.521)"/></svg>