<svg xmlns="http://www.w3.org/2000/svg" width="79.042" height="76.482" viewBox="0 0 79.042 76.482"><defs><style>.a{fill:#ed5481;}.b{fill:#fbad4a;}.c{fill:#85d839;}.d{fill:#2a8ee6;}</style></defs><g transform="translate(0 -3.538)"><circle class="a" cx="13.582" cy="13.582" r="13.582" transform="translate(25.939 28.197)"/><path d="M83.11,97.927A14.816,14.816,0,1,1,97.927,83.111,14.833,14.833,0,0,1,83.11,97.927Zm0-27.163A12.347,12.347,0,1,0,95.457,83.11,12.361,12.361,0,0,0,83.11,70.764Z" transform="translate(-43.59 -41.332)"/><path d="M61.419,80.02a2.135,2.135,0,0,1-.867-.188c-1.474-.643-2.773-2.805.3-13.9a213.578,213.578,0,0,1,9.91-26.947A213.65,213.65,0,0,1,83.78,13.395C89.833,3.6,92.3,3.082,93.775,3.725s2.773,2.805-.3,13.9a213.577,213.577,0,0,1-9.91,26.947h0A213.588,213.588,0,0,1,70.547,70.163C65.541,78.266,62.986,80.02,61.419,80.02ZM92.756,6.058C90.676,6.8,82.916,17.3,73.021,39.97S60.7,75.469,61.571,77.5c2.08-.744,9.841-11.246,19.736-33.912S93.625,8.088,92.756,6.058ZM82.438,44.081h0Z" transform="translate(-37.643)"/><path d="M86.422,84.16c-1.666,0-4.667-1.483-10.777-7.184a213.676,213.676,0,0,1-19.3-21.254A213.732,213.732,0,0,1,39.683,32.338C33.8,22.44,34.484,20.013,35.737,19s3.771-1.16,12.189,6.694a213.586,213.586,0,0,1,19.3,21.254A213.7,213.7,0,0,1,83.888,70.336c5.883,9.9,5.2,12.325,3.947,13.334A2.144,2.144,0,0,1,86.422,84.16ZM37.334,20.986c-.3,2.188,5.415,13.928,20.932,33.187S84.035,81.519,86.237,81.689c.3-2.188-5.416-13.928-20.932-33.187h0C49.792,29.244,39.538,21.157,37.334,20.986Z" transform="translate(-22.265 -9.559)"/><path d="M5.173,97.743c-3.752,0-4.727-.977-5.056-1.968C-.39,94.248.349,91.837,10.653,86.7A213.649,213.649,0,0,1,37.317,76.051a213.615,213.615,0,0,1,27.735-7.424c11.33-2.047,13.365-.559,13.872.968s-.232,3.937-10.535,9.076A213.65,213.65,0,0,1,41.725,89.318,213.617,213.617,0,0,1,13.99,96.742,51.782,51.782,0,0,1,5.173,97.743ZM2.559,94.963c.61.253,3.16.853,12.069-.851a217.681,217.681,0,0,0,26.318-7.137A217.665,217.665,0,0,0,66.3,76.945c8.157-3.965,9.842-5.971,10.179-6.539-.609-.253-3.161-.852-12.069.851A217.7,217.7,0,0,0,38.1,78.395a217.7,217.7,0,0,0-25.358,10.03C4.582,92.389,2.9,94.395,2.559,94.963Z" transform="translate(0 -40.906)"/><circle class="b" cx="3.704" cy="3.704" r="3.704" transform="translate(41.99 12.145)"/><path d="M117.607,33.8a4.939,4.939,0,1,1,4.939-4.939A4.944,4.944,0,0,1,117.607,33.8Zm0-7.408a2.47,2.47,0,1,0,2.47,2.47A2.472,2.472,0,0,0,117.607,26.39Z" transform="translate(-71.912 -13.01)"/><circle class="c" cx="4.322" cy="4.322" r="4.322" transform="translate(55.572 55.36)"/><path d="M155.77,154.5a5.556,5.556,0,1,1,5.556-5.556A5.563,5.563,0,0,1,155.77,154.5Zm0-8.643a3.087,3.087,0,1,0,3.087,3.087A3.09,3.09,0,0,0,155.77,145.857Z" transform="translate(-95.877 -89.262)"/><circle class="d" cx="3.704" cy="3.704" r="3.704" transform="translate(13.592 49.187)"/><path d="M39.1,136.2a4.939,4.939,0,1,1,4.939-4.939A4.944,4.944,0,0,1,39.1,136.2Zm0-7.408a2.47,2.47,0,1,0,2.47,2.47A2.472,2.472,0,0,0,39.1,128.79Z" transform="translate(-21.804 -78.369)"/></g></svg>