<svg xmlns="http://www.w3.org/2000/svg" width="71.676" height="80.88" viewBox="0 0 71.676 80.88"><defs><style>.a{fill:#7d4a3b;}.b{fill:#5c3629;}.c{fill:#b48e6e;}.d{fill:#bcfbff;}.e{fill:#5ecbf1;}.f{fill:#00a763;}.g{fill:#8ee26b;}</style></defs><g transform="translate(-29.132 0)"><path class="a" d="M241,436.92h4.739v9.491H241Z" transform="translate(-178.4 -367.9)"/><path class="b" d="M256,436.92h2.37v9.491H256Z" transform="translate(-191.03 -367.9)"/><path class="c" d="M44.264,21.887A35.543,35.543,0,0,0,94.529,72.152L97.88,75.5A40.282,40.282,0,0,1,40.913,18.536Z" transform="translate(0 -15.607)"/><path class="a" d="M260.426,368.34a36.231,36.231,0,0,1-4.426-.27v4.768a41.086,41.086,0,0,0,4.426.241A40.01,40.01,0,0,0,288.91,361.3l-3.351-3.351A35.3,35.3,0,0,1,260.426,368.34Z" transform="translate(-191.03 -301.402)"/><path class="c" d="M195.485,486.739H173.37a2.37,2.37,0,1,1,0-4.739h22.116a2.37,2.37,0,1,1,0,4.739Z" transform="translate(-119.457 -405.859)"/><path class="a" d="M267.058,482H256v4.739h11.058a2.37,2.37,0,1,0,0-4.739Z" transform="translate(-191.03 -405.859)"/><path class="a" d="M96.478,13.676a2.361,2.361,0,0,1-1.675-.694L85.867,4.046A2.37,2.37,0,0,1,89.218.695L98.153,9.63a2.37,2.37,0,0,1-1.675,4.045Z" transform="translate(-47.188)"/><path class="b" d="M407.606,324.8a2.361,2.361,0,0,1-1.675-.694l-8.936-8.936a2.37,2.37,0,0,1,3.351-3.351l8.936,8.936a2.37,2.37,0,0,1-1.676,4.045Z" transform="translate(-309.167 -261.979)"/><path class="d" d="M89.952,41.889A31.033,31.033,0,0,1,90.3,26.239L111.415,5.121A30.994,30.994,0,0,1,131.63,6.243l19.047,29.392A30.744,30.744,0,0,1,124.23,65.211Z" transform="translate(-50.507 -3.315)"/><path class="e" d="M256,4.264v55l8.753,5.955A30.744,30.744,0,0,0,291.2,35.642L272.152,6.25A30.971,30.971,0,0,0,256,4.264Z" transform="translate(-191.03 -3.323)"/><path class="f" d="M305.694,38.931a7.635,7.635,0,0,1-6.479-12.957l7.446-7.446A30.764,30.764,0,0,1,325.708,47.92l-4.249,1.25A9.743,9.743,0,0,1,309.1,41.424a3.038,3.038,0,0,0-3.406-2.493Z" transform="translate(-225.539 -15.601)"/><path class="g" d="M102.585,204.286a30.618,30.618,0,0,1-8.168-14.617l1.531-.919a28.4,28.4,0,0,1,19.264-3.658,5.441,5.441,0,0,0,4.732-1.516l1.569-1.569a8.774,8.774,0,1,1,11.071,13.5,10.908,10.908,0,0,0-4.8,10.552l.905,6.926A30.776,30.776,0,0,1,102.585,204.286Z" transform="translate(-54.972 -151.095)"/><path class="g" d="M104.428,19.252a30.612,30.612,0,0,1,13.295-7.822A15.007,15.007,0,0,1,96.606,32.547,30.613,30.613,0,0,1,104.428,19.252Z" transform="translate(-56.815 -9.624)"/><path class="f" d="M257.572,182.007,256,183.576l0,0v29.4a31.075,31.075,0,0,0,8.753.014l-.905-6.926a10.908,10.908,0,0,1,4.8-10.552,8.774,8.774,0,1,0-11.071-13.5Z" transform="translate(-191.03 -151.095)"/></g></svg>