<svg xmlns="http://www.w3.org/2000/svg" width="71.291" height="82.69" viewBox="0 0 71.291 82.69"><defs><style>.a{fill:#c20022;}.b{fill:#98001b;}.c{fill:#fcbf29;}.d{fill:#ff9822;}</style></defs><g transform="translate(-35.293)"><path class="a" d="M105.874,12.109A41.345,41.345,0,0,0,35.293,41.345a2.423,2.423,0,0,0,2.423,2.423H53.285a2.422,2.422,0,0,0,2.238-3.35l35.391-14.66a2.422,2.422,0,0,0,3.951.786l11.009-11.009a2.423,2.423,0,0,0,0-3.426Z"/><path class="b" d="M290.936,12.109A41.077,41.077,0,0,0,261.7,0a41.959,41.959,0,0,0-5.7.39V34.033l19.976-8.274a2.422,2.422,0,0,0,3.951.786l11.009-11.009a2.423,2.423,0,0,0,0-3.426Z" transform="translate(-185.062)"/><path class="c" d="M167.473,127.193H151.782a2.423,2.423,0,0,1,0-4.845h17.992v-.172a25.776,25.776,0,0,0-51.552-.205l-2.563,15.376a2.423,2.423,0,0,0,2.39,2.821h13.259a25.813,25.813,0,0,0,25.663,23.354h11.953a2.422,2.422,0,0,0,2.407-2.7Z" transform="translate(-67.359 -80.831)"/><path class="d" d="M289.034,160.823l-3.859-33.629H269.485a2.423,2.423,0,0,1,0-4.845h17.992v-.172A25.784,25.784,0,0,0,256,97.036v58.458a25.706,25.706,0,0,0,18.674,8.027h11.953a2.422,2.422,0,0,0,2.407-2.7Z" transform="translate(-185.062 -80.831)"/></g></svg>