<svg xmlns="http://www.w3.org/2000/svg" width="135" height="120.516" viewBox="0 0 135 120.516"><defs><style>.a{fill:#44c868;}.b{fill:#4ce166;}.c{fill:#ffdb56;}.d{fill:#a8eefc;}.e{fill:#ffbb24;}.f{fill:#ff4a4a;}.g{fill:#e7343f;}.h{fill:#1ea4e9;}</style></defs><g transform="translate(34.578 43.28)"><path class="a" d="M401.843,266.512l-10.606-58.433a1.979,1.979,0,0,0-.986-1.377l-26.695-14.847a1.974,1.974,0,0,0-1.116-.24l4.857,62.651-.163.073,31.948,14.332a1.981,1.981,0,0,0,2.761-2.159Z" transform="translate(-301.453 -191.608)"/><path class="a" d="M164.064,206.047l-27.3-14.22a1.975,1.975,0,0,0-1.047-.216,2.045,2.045,0,0,1,.284,0l-4.857,62.651,32.11,14.405a1.985,1.985,0,0,0,.811.174h0Z" transform="translate(-131.142 -191.607)"/></g><g transform="translate(0 43.28)"><path class="b" d="M39.435,191.616a1.976,1.976,0,0,0-1.116.24L11.624,206.7a1.978,1.978,0,0,0-.986,1.377L.032,266.513a1.981,1.981,0,0,0,2.761,2.159l31.774-14.254Z" transform="translate(0 -191.61)"/><path class="b" d="M284.065,191.628a1.976,1.976,0,0,0-.763.216L256,206.064v62.8h0a1.98,1.98,0,0,0,.811-.174l32.11-14.405Z" transform="translate(-188.5 -191.623)"/></g><path class="c" d="M22.137,276.217l-2.154,11.87,31.9-16.85.741-9.555.123-1.585Z" transform="translate(-14.714 -198.758)"/><path class="d" d="M37.459,288.294,37.172,292l-31.9,16.85L.032,337.7a1.981,1.981,0,0,0,2.761,2.159l31.774-14.254,2.892-37.315Z" transform="translate(0 -219.521)"/><g transform="translate(37.172 50.073)"><path class="e" d="M171.313,264.311,141.841,260.1l-.864,11.14,30.328,46.058V300.547l-18.1-28.5,18.106,2.166Z" transform="translate(-140.977 -248.831)"/><path class="e" d="M390.233,224.5l-12.824-7.133-12.14,2.837.152,1.961.6,7.735Z" transform="translate(-306.129 -217.37)"/></g><path class="c" d="M286.661,251.713l-1.15-14.831h0l-.678-8.754-28.8,12.644v9.9l18.815-8.182Z" transform="translate(-188.522 -175.219)"/><path class="e" d="M406.025,320.477,403.361,305.8l-35.242-40.9,1.077,13.89,36.142,43.564A1.977,1.977,0,0,0,406.025,320.477Z" transform="translate(-271.056 -202.294)"/><path class="f" d="M179.078,27.465A27.737,27.737,0,0,0,151.361,55.16c0,9.446,4.485,19.588,13.33,30.144a94.732,94.732,0,0,0,13.175,12.948,1.983,1.983,0,0,0,2.425,0A94.746,94.746,0,0,0,193.466,85.3c8.845-10.555,13.33-20.7,13.33-30.144A27.738,27.738,0,0,0,179.078,27.465Zm10.265,27.694A10.265,10.265,0,1,1,179.078,44.9,10.261,10.261,0,0,1,189.343,55.159Z" transform="translate(-111.451 -27.465)"/><path class="g" d="M246.5,27.465a27.873,27.873,0,0,0-3.575.23A27.744,27.744,0,0,1,267.064,55.16c0,9.446-4.485,19.588-13.33,30.144A99.128,99.128,0,0,1,242.922,96.29c1.385,1.2,2.267,1.886,2.363,1.961a1.983,1.983,0,0,0,2.425,0A94.749,94.749,0,0,0,260.885,85.3c8.845-10.555,13.33-20.7,13.33-30.144A27.738,27.738,0,0,0,246.5,27.465Z" transform="translate(-178.87 -27.465)"/><path class="c" d="M256.812,432.061l11.94-5.357L256,413.507v18.728h0A1.977,1.977,0,0,0,256.812,432.061Z" transform="translate(-188.5 -311.718)"/><g transform="translate(34.578 57.205)"><path class="h" d="M395.418,246.965a1.979,1.979,0,0,0-.986-1.377l-2.1-1.169-24.212,5.4h0l35.241,40.9Z" transform="translate(-305.633 -244.42)"/><path class="h" d="M164.062,350.384h0V348.4l-30.328-46.058L131.14,335.8l32.11,14.405A1.98,1.98,0,0,0,164.062,350.384Z" transform="translate(-131.14 -287.073)"/></g></svg>