<svg xmlns="http://www.w3.org/2000/svg" width="91.759" height="68.561" viewBox="0 0 91.759 68.561"><defs><style>.a{fill:#537983;}.b{fill:#3e5959;}.c{fill:#0ed290;}.d{fill:#00c285;}.e{fill:#6c7fd8;}.f{fill:#4f66d0;}.g{fill:#ffcebf;}.h{fill:#ffb09e;}.i{fill:#e2f1fe;}</style></defs><g transform="translate(0 -62.826)"><path class="a" d="M63.487,76.994a3.762,3.762,0,0,1-3.762-3.762V66.588a3.762,3.762,0,0,1,7.523,0v6.645A3.762,3.762,0,0,1,63.487,76.994Z" transform="translate(-48.698)"/><path class="b" d="M71.794,62.826a3.738,3.738,0,0,0-1.88.507,3.757,3.757,0,0,1,1.881,3.254v6.645a3.757,3.757,0,0,1-1.881,3.254,3.757,3.757,0,0,0,5.642-3.254V66.588A3.761,3.761,0,0,0,71.794,62.826Z" transform="translate(-57.006)"/><path class="a" d="M399.88,76.994a3.762,3.762,0,0,1-3.762-3.762V66.588a3.762,3.762,0,1,1,7.523,0v6.645A3.762,3.762,0,0,1,399.88,76.994Z" transform="translate(-322.985)"/><path class="b" d="M408.187,62.826a3.739,3.739,0,0,0-1.881.507,3.757,3.757,0,0,1,1.881,3.254v6.645a3.757,3.757,0,0,1-1.881,3.254,3.757,3.757,0,0,0,5.642-3.254V66.588A3.762,3.762,0,0,0,408.187,62.826Z" transform="translate(-331.292)"/><path class="c" d="M101.535,166.469H15.5V116.7a3.165,3.165,0,0,1,3.164-3.164H98.371a3.165,3.165,0,0,1,3.164,3.164Z" transform="translate(-12.638 -41.348)"/><path class="d" d="M443.089,113.537h-4.816a3.165,3.165,0,0,1,3.164,3.164v49.768h4.816V116.7A3.165,3.165,0,0,0,443.089,113.537Z" transform="translate(-357.357 -41.348)"/><path class="e" d="M375.488,368.912h-24v-6.318a2.609,2.609,0,0,1,2.609-2.609H372.88a2.609,2.609,0,0,1,2.609,2.609v6.318Z" transform="translate(-286.591 -242.296)"/><path class="f" d="M446.1,359.985h-4.816a2.609,2.609,0,0,1,2.609,2.609v6.318h4.816v-6.318A2.609,2.609,0,0,0,446.1,359.985Z" transform="translate(-359.812 -242.296)"/><path class="g" d="M90.281,397.349H1.478A1.478,1.478,0,0,0,0,398.827v3.844a1.478,1.478,0,0,0,1.478,1.478h88.8a1.478,1.478,0,0,0,1.478-1.478v-3.844A1.478,1.478,0,0,0,90.281,397.349Z" transform="translate(0 -272.762)"/><path class="h" d="M454.872,397.349a1.61,1.61,0,0,1,1.61,1.61v3.58a1.61,1.61,0,0,1-1.61,1.61h6.3a1.478,1.478,0,0,0,1.478-1.478v-3.844a1.478,1.478,0,0,0-1.478-1.478Z" transform="translate(-370.891 -272.762)"/><g transform="translate(9.183 79.692)"><path class="i" d="M295.28,220.526a1.384,1.384,0,0,0-1.761.856l-2.679,7.749-2.751-7.76a1.385,1.385,0,0,0-2.61.925l3.91,11.031-1.428,4.131a1.385,1.385,0,0,0,.856,1.761,1.449,1.449,0,0,0,1.761-.856l5.558-16.077A1.385,1.385,0,0,0,295.28,220.526Z" transform="translate(-241.89 -208.215)"/><path class="i" d="M107.9,226.917l3.2-4.248A1.385,1.385,0,0,0,108.9,221l-2.732,3.623L103.413,221a1.385,1.385,0,0,0-2.206,1.674l3.225,4.25-3.636,4.822a1.385,1.385,0,0,0,.272,1.939,1.45,1.45,0,0,0,1.939-.272l3.164-4.2,3.332,4.391a1.4,1.4,0,0,0,1.94.266,1.385,1.385,0,0,0,.266-1.94Z" transform="translate(-91.142 -208.216)"/><path class="i" d="M203.38,232.388h-2.821v-2.821a1.385,1.385,0,0,0-2.769,0v2.821h-2.922a1.385,1.385,0,0,0,0,2.769h2.922v2.922a1.385,1.385,0,0,0,2.769,0v-2.922h2.821a1.385,1.385,0,0,0,0-2.769Z" transform="translate(-166.944 -214.52)"/><path class="i" d="M52.554,215.83a1.385,1.385,0,0,0-1.8.772c-.091.228-2.206,5.67-.052,13.748a1.458,1.458,0,0,0,1.695.981,1.385,1.385,0,0,0,.981-1.695c-1.9-7.115-.078-11.939-.05-12.011a1.385,1.385,0,0,0-.773-1.8Z" transform="translate(-49.738 -204.367)"/><path class="i" d="M375.65,213.708a1.385,1.385,0,0,0-.772,1.8c.019.047,1.867,4.807-.052,12.006a1.385,1.385,0,0,0,.981,1.695,1.447,1.447,0,0,0,1.695-.981c2.153-8.077.039-13.52-.052-13.748A1.385,1.385,0,0,0,375.65,213.708Z" transform="translate(-314.768 -202.637)"/><path class="i" d="M410.457,163.9h-.018c-.743.009-1.525.016-2.232.02.492-.667,1.122-1.537,1.916-2.672a6.563,6.563,0,0,0,1.313-3.238,3.83,3.83,0,0,0-7.587-.741,1.385,1.385,0,1,0,2.717.534,1.06,1.06,0,0,1,2.1.137l-.024.186a4.984,4.984,0,0,1-.787,1.534c-1.51,2.157-2.41,3.336-2.894,3.97-.623.815-.966,1.265-.736,2.014a1.444,1.444,0,0,0,.926.94,7.6,7.6,0,0,0,2.215.111c.736,0,1.737-.008,3.109-.025a1.384,1.384,0,0,0-.017-2.769Z" transform="translate(-338.45 -154.181)"/></g></g></svg>