<svg xmlns="http://www.w3.org/2000/svg" width="189" height="189" viewBox="0 0 189 189"><defs><style>.a{fill:#fff;}</style></defs><g transform="translate(0)"><path class="a" d="M12.15,27.874a3.15,3.15,0,0,0,2.227-.923l12.6-12.6A3.15,3.15,0,0,0,22.523,9.9L9.923,22.5a3.15,3.15,0,0,0,2.227,5.377Z" transform="translate(19.35 19.376)"/><path class="a" d="M9.922,45.851a3.15,3.15,0,0,0,4.454,0l31.5-31.5A3.15,3.15,0,0,0,41.422,9.9L9.922,41.4a3.15,3.15,0,0,0,0,4.454Z" transform="translate(19.35 19.376)"/><path class="a" d="M104.688,88.174a39.375,39.375,0,1,0-51.427,0A40.093,40.093,0,0,0,27,125.514v19.53a3.15,3.15,0,0,0,3.15,3.15H127.8a3.15,3.15,0,0,0,3.15-3.15v-19.53a40.093,40.093,0,0,0-26.262-37.34ZM45.9,58.419A33.075,33.075,0,1,1,78.975,91.494,33.075,33.075,0,0,1,45.9,58.419Zm78.75,83.475h-18.9v-6.3a3.15,3.15,0,0,0-6.3,0v6.3H58.5v-6.3a3.15,3.15,0,0,0-6.3,0v6.3H33.3v-16.38A34.114,34.114,0,0,1,59.716,92.729a39.145,39.145,0,0,0,38.518,0,34.114,34.114,0,0,1,26.416,32.785Z" transform="translate(58.05 40.806)"/><path class="a" d="M179.55,0h-50.4a9.45,9.45,0,0,0-9.45,9.45v6.3H25.2a9.45,9.45,0,0,0-9.45,9.45v80.892L.589,127.32A3.865,3.865,0,0,0,0,129.15v9.45a12.6,12.6,0,0,0,12.6,12.6H79.159a3.15,3.15,0,0,0,0-6.3H12.6a6.3,6.3,0,0,1-6.3-6.3v-6.3H52.246l5.377,5.377a3.15,3.15,0,0,0,2.227.923H86.625a3.15,3.15,0,1,0,0-6.3H61.154l-4-4,1.814-5.449H92.7a3.15,3.15,0,1,0,0-6.3h-36a3.15,3.15,0,0,0-2.986,2.155L51.282,126H9.27l11.249-15.75H88.2a3.15,3.15,0,0,0,0-6.3H72.45V96.075a3.15,3.15,0,0,0-6.3,0v7.875h-6.3v-8.1A15.863,15.863,0,0,1,71.014,80.577a22.185,22.185,0,1,0-5.531-4.482A22.167,22.167,0,0,0,53.55,95.854v8.1H22.05V25.2a3.15,3.15,0,0,1,3.15-3.15h94.5v8.5l-8.82,13.211a6.3,6.3,0,0,0,5.254,9.784H179.55A9.45,9.45,0,0,0,189,44.1V9.45A9.45,9.45,0,0,0,179.55,0ZM81.9,45.675a15.75,15.75,0,1,1-15.75,15.75A15.75,15.75,0,0,1,81.9,45.675ZM182.7,44.1a3.15,3.15,0,0,1-3.15,3.15H116.134l9.337-14A3.169,3.169,0,0,0,126,31.5V9.45a3.15,3.15,0,0,1,3.15-3.15h50.4a3.15,3.15,0,0,1,3.15,3.15Z" transform="translate(0)"/><path class="a" d="M77.65,5H46.15a3.15,3.15,0,1,0,0,6.3h31.5a3.15,3.15,0,1,0,0-6.3Z" transform="translate(92.45 10.75)"/><path class="a" d="M77.65,10H46.15a3.15,3.15,0,1,0,0,6.3h31.5a3.15,3.15,0,1,0,0-6.3Z" transform="translate(92.45 21.5)"/></g></svg>