<svg xmlns="http://www.w3.org/2000/svg" width="174.003" height="174" viewBox="0 0 174.003 174"><defs><style>.a{fill:#fff;}</style></defs><g transform="translate(-1 -0.003)"><g transform="translate(1 0.003)"><path class="a" d="M172.1,136.3a2.9,2.9,0,1,0,0-5.8h-2.9a2.9,2.9,0,0,0-5.8,0H117a2.9,2.9,0,0,0-5.8,0h-2.9a2.9,2.9,0,0,0,0,5.8h2.9V145h-2.9a2.9,2.9,0,0,0,0,5.8h2.9v2.9h-2.9a2.9,2.9,0,0,0,0,5.8h2.9v8.7H61.9V144.21A28.672,28.672,0,0,0,75.956,147.9,29.878,29.878,0,0,0,105.4,117.677,30.2,30.2,0,0,0,88.89,90.52a26.471,26.471,0,0,0,5.136-15.786A26.182,26.182,0,0,0,73.061,48.867,22.431,22.431,0,0,0,53.2,17.179c-.086,0-.169.012-.255.013a20.292,20.292,0,0,0-40.174.468A14.5,14.5,0,0,0,15.5,46.4h16.9a22.409,22.409,0,0,0,.929,2.45A26.2,26.2,0,0,0,12.378,74.735a26.473,26.473,0,0,0,5.136,15.786A30.2,30.2,0,0,0,1,117.677,29.878,29.878,0,0,0,30.448,147.9,28.668,28.668,0,0,0,44.5,144.21V168.2H3.9a2.9,2.9,0,0,0,0,5.8H172.1a2.9,2.9,0,1,0,0-5.8h-2.9v-8.7h2.9a2.9,2.9,0,0,0,0-5.8h-2.9v-2.9h2.9a2.9,2.9,0,1,0,0-5.8h-2.9v-8.7h2.9ZM31.34,39.6c0,.337.038.668.053,1H15.5a8.7,8.7,0,1,1,0-17.4,2.9,2.9,0,0,0,2.9-2.9,14.472,14.472,0,0,1,28.774-2.237A22.371,22.371,0,0,0,31.34,39.6ZM56.1,168.2H50.3V139.947a29.92,29.92,0,0,0,2.9-3.114,29.881,29.881,0,0,0,2.9,3.114V168.2Zm.352-36.851,19.1-19.1a2.9,2.9,0,0,0-4.1-4.1L56.1,123.5V94l13.65-13.65a2.9,2.9,0,0,0-4.1-4.1L56.1,85.8V72.5a2.9,2.9,0,0,0-5.8,0V85.8l-9.55-9.55a2.9,2.9,0,0,0-4.1,4.1L50.3,94v29.5l-15.35-15.35a2.9,2.9,0,0,0-4.1,4.1l19.1,19.1a23.219,23.219,0,0,1-19.5,10.751,24.54,24.54,0,0,1-7.206-47.689,2.9,2.9,0,0,0,1.125-4.82,20.664,20.664,0,0,1-6.188-14.86A20.2,20.2,0,0,1,37.8,54.2a3,3,0,0,0,2.907-1.575,2.893,2.893,0,0,0-.25-3.025,16.809,16.809,0,0,1-3.319-10A16.367,16.367,0,0,1,53.2,22.979,16.367,16.367,0,0,1,69.263,39.6a16.809,16.809,0,0,1-3.319,10,2.882,2.882,0,0,0-.205,3.022,2.963,2.963,0,0,0,2.632,1.589A20.22,20.22,0,0,1,88.225,74.735a20.666,20.666,0,0,1-6.188,14.86,2.9,2.9,0,0,0,1.125,4.82A24.54,24.54,0,0,1,75.956,142.1,23.218,23.218,0,0,1,56.454,131.352ZM163.4,168.2H117v-8.7h46.4Zm0-14.5H117v-2.9h46.4Zm0-8.7H117v-8.7h46.4Z" transform="translate(-1 -0.003)"/><path class="a" d="M339.772,123.2h34.8A14.5,14.5,0,0,0,377.3,94.463a20.3,20.3,0,0,0-40.257,0,14.5,14.5,0,0,0,2.729,28.742Zm0-23.2a2.9,2.9,0,0,0,2.9-2.9,14.5,14.5,0,0,1,29,0,2.9,2.9,0,0,0,2.9,2.9,8.7,8.7,0,1,1,0,17.4h-34.8a8.7,8.7,0,0,1,0-17.4Z" transform="translate(-215.069 -50.704)"/></g></g></svg>