<svg xmlns="http://www.w3.org/2000/svg" width="180" height="178.834" viewBox="0 0 180 178.834"><defs><style>.a{fill:#fff;}</style></defs><g transform="translate(0 -1.657)"><path class="a" d="M125.187,199.053a2.627,2.627,0,0,0-3.5,1.247,5.555,5.555,0,0,1-10.039,0,2.627,2.627,0,1,0-4.747,2.253,10.809,10.809,0,0,0,19.532,0A2.628,2.628,0,0,0,125.187,199.053Z" transform="translate(-69.154 -127.834)"/><path class="a" d="M400.314,57.377H387.6a2.627,2.627,0,0,0-2.507,1.843l-5.7,18.224-1.6-5.961a2.627,2.627,0,0,0-2.537-1.944h-6.422a2.627,2.627,0,1,0,0,5.254h4.409l3.429,12.737a2.627,2.627,0,0,0,2.484,1.943h.053a2.627,2.627,0,0,0,2.507-1.843l7.822-25h10.786a2.627,2.627,0,1,0,0-5.254Z" transform="translate(-237.456 -36.131)"/><path class="a" d="M446.042,95.218a2.616,2.616,0,0,0,.047-.261l.1-.775a2.627,2.627,0,0,0,.021-.333,7.753,7.753,0,0,0-15.36-1.5A2.627,2.627,0,1,0,436,93.363a2.5,2.5,0,0,1,4.947.349l-.056.433a10.982,10.982,0,0,1-1.695,3.322c-3.169,4.528-5.059,7-6.075,8.333-1.25,1.637-1.939,2.539-1.5,3.973a2.716,2.716,0,0,0,1.764,1.789c.354.118.653.218,4.552.218,1.538,0,3.637-.015,6.519-.052a2.627,2.627,0,0,0-.066-5.254c-1.757.022-3.611.038-5.233.044,1.074-1.447,2.5-3.4,4.34-6.038a15.565,15.565,0,0,0,2.537-5.262Z" transform="translate(-279.346 -54.754)"/><path class="a" d="M167.363,10.985H95.955a6.022,6.022,0,0,0-1.091-2.391,6.179,6.179,0,0,0-5.017-2.561c-2.294-.009-4.729,1.214-6.895,2.811a8.081,8.081,0,0,0-1.094-4.277c-.835-1.328-2.535-2.91-5.9-2.91-4.128,0-7.412,2.178-9.868,4.791A7.4,7.4,0,0,0,64.9,3.97a5.856,5.856,0,0,0-4.853-2.313c-3.766,0-6.7,3-9.59,6.67a44.079,44.079,0,0,0-4.665-2.24c-.927-.379-1.87-.725-2.807-1.027a26.531,26.531,0,0,0-9.462-1.407l-.037,0-.073,0c-.418.026-.842.065-1.27.118a16.092,16.092,0,0,0-11.653,7.353c-3.339-1.1-9.666-2.346-14.574,1.636C-1,18.383-1.845,31.4,3.35,52.522A10.521,10.521,0,0,0,8.66,69.789c.048,1.418.1,2.835.177,4.247A22.773,22.773,0,0,0,20.89,93.042a40.447,40.447,0,0,0-7.508,12.1,2.627,2.627,0,1,0,4.851,2.019c2.887-6.935,6.346-10.567,8.07-12.066a23.2,23.2,0,0,0,4.3.606q1.86.088,3.726.154l-3.244,8.01a2.627,2.627,0,0,0,3.086,3.531l10.73-2.745v22.529H25.613a47.435,47.435,0,0,1,1.633-5.809,2.627,2.627,0,0,0-4.92-1.843,53.734,53.734,0,0,0-2.466,9.889c-.18,1.2-.3,2.365-.385,3.5h-6.05a84.83,84.83,0,0,1,1.851-16.234,2.627,2.627,0,1,0-5.129-1.137,92.515,92.515,0,0,0-2,19.51c-.788,2.194-2.781,8.9.763,12.44,1.637,1.636,4.142,2.133,6.583,2.133a23.173,23.173,0,0,0,3.791-.341,75.026,75.026,0,0,0,3.469,19.61,10.821,10.821,0,0,0-4.773,8.97,2.627,2.627,0,0,0,2.627,2.627H43.237a2.627,2.627,0,0,0,2.627-2.627v-8.2a2.634,2.634,0,0,0-.059-.553c-1-4.64-2.338-16.908,1.718-24.009,4.041,7.089,2.716,19.355,1.722,24a2.626,2.626,0,0,0-.061.56v8.2a2.627,2.627,0,0,0,2.627,2.627H74.442a2.627,2.627,0,0,0,2.627-2.627A10.821,10.821,0,0,0,72.3,168.9c4.969-14.458,3.437-32.78,3.369-33.564l-.459-5.734c0-.018,0-.036,0-.054-.159-1.582-.4-3.1-.689-4.56h67.344a2.627,2.627,0,1,0,0-5.254H73.174a54.6,54.6,0,0,0-2.388-6.288c2.249.132,5.121.242,8.235.239,8.068-.02,14.3-.85,18.6-2.465a6.575,6.575,0,0,0,2.611,1.765L99.43,115.8a2.627,2.627,0,1,0,5.052,1.442l1.1-3.859h2.06a6.573,6.573,0,0,0,6.566-6.566v-2.814a6.571,6.571,0,0,0-4.2-6.119L124.788,46.1a2.627,2.627,0,0,0-5.052-1.442L104.671,97.443H98.82c-1.677-.345-11.691-2.455-22.473-5.737a22.789,22.789,0,0,0,9.844-17.67q.109-2.12.177-4.247a10.528,10.528,0,0,0-.16-20.487Q85.8,40.94,84.823,32.623c5.2-5.577,9.3-11.752,10.709-16.384h71.831a7.392,7.392,0,0,1,7.384,7.384v88.724a7.392,7.392,0,0,1-7.384,7.384h-15a2.627,2.627,0,0,0,0,5.254h15A12.652,12.652,0,0,0,180,112.346V23.623a12.652,12.652,0,0,0-12.638-12.638Zm-87.315,26.3Q80.7,43.789,81,50.333l-8.578,5.256a10.94,10.94,0,0,0-20.73,1.554H43.335a10.939,10.939,0,0,0-20.73-1.554L17.888,52.7c4.64-2.464,7.436-7.364,8.873-11.66a39.825,39.825,0,0,0,17.387,6.633A47.121,47.121,0,0,0,67.6,45.364,43.544,43.544,0,0,0,80.047,37.282ZM68,59.769a5.687,5.687,0,1,1-5.687-5.687A5.694,5.694,0,0,1,68,59.769Zm-29.6,0a5.687,5.687,0,1,1-5.687-5.687A5.694,5.694,0,0,1,38.4,59.769Zm-32.507-.2A5.279,5.279,0,0,1,8.6,54.96q-.12,4.575-.068,9.167a5.273,5.273,0,0,1-2.639-4.562ZM37.9,101.016l2.026-5q2.482.052,4.968.068v3.144Zm17.214-5,2.026,5-6.992-1.789V96.082Q52.636,96.063,55.117,96.013ZM12.624,143.778c-.736-.736-.576-3.256.052-5.609h6.533c-.065,1.486-.118,3.48-.1,5.808C16,144.591,13.292,144.445,12.624,143.778Zm11.269,31.46a5.576,5.576,0,0,1,4.9-2.942H40.611v2.942Zm30.545,0V172.3H66.26a5.576,5.576,0,0,1,4.9,2.942Zm.482-8.2a63.614,63.614,0,0,0,.62-8.569c.014-8.873-2.058-15.452-6.157-19.551a2.627,2.627,0,0,0-3.715,0c-4.1,4.1-6.171,10.678-6.158,19.551a63.614,63.614,0,0,0,.62,8.569H27.667c-4.441-13.091-2.982-33.529-2.88-34.608H70.165l.267,3.337c.016.185,1.489,17.892-3.05,31.271Zm54.037-60.218a1.313,1.313,0,0,1-1.312,1.312H102.49a1.313,1.313,0,0,1-1.311-1.312V102.7h6.466a1.313,1.313,0,0,1,1.312,1.312ZM95.925,102.2v4.05c-3.617,1.406-9.386,2.155-16.866,2.178-6.737.019-12.44-.575-12.5-.581a2.628,2.628,0,0,0-2.5,4.006,47.367,47.367,0,0,1,5.521,15.326H50.152V104.65L60.879,107.4a2.627,2.627,0,0,0,3.086-3.531l-3.244-8.011q1.855-.068,3.705-.153a23.159,23.159,0,0,0,4.834-.747A266.019,266.019,0,0,0,95.925,102.2ZM80.944,73.767A17.553,17.553,0,0,1,64.179,90.452c-11.059.522-22.273.522-33.332,0A17.549,17.549,0,0,1,14.084,73.767c-.3-5.764-.381-11.6-.26-17.4l8.059,4.938A10.94,10.94,0,0,0,43.335,62.4h8.357a10.94,10.94,0,0,0,21.451-1.088L81.2,56.372Q81.384,65.089,80.944,73.767Zm8.189-14.2a5.273,5.273,0,0,1-2.638,4.562q.049-4.58-.071-9.169A5.279,5.279,0,0,1,89.132,59.566ZM90.572,14.5c-2.215,7.846-14.914,22.117-24.864,25.962-12.972,5.012-30.3,2.315-38.628-6.012a2.627,2.627,0,0,0-4.457,1.478c-.019.131-2.024,13.11-11.283,13.11H11.33c-.054,0-.108,0-.161,0a10.492,10.492,0,0,0-3.137.477c-2.6-11.191-5.058-27.559,1.182-32.653,4.225-3.449,11.185-.142,11.248-.112a2.627,2.627,0,0,0,3.494-1.153c2.036-3.946,4.932-6.106,8.844-6.6.3-.037.6-.065.9-.084l.135-.007a21.357,21.357,0,0,1,7.546,1.162c.807.261,1.624.559,2.429.889,1.318.539,2.484,1.106,3.429,1.606-2.28,2.962-4.621,5.694-7.009,6.575a2.627,2.627,0,0,0,1.82,4.929c4.3-1.589,7.564-5.913,10.717-10.1,2.37-3.143,5.319-7.054,7.288-7.054.489,0,.59.132.67.238,1,1.317.529,5.692-.2,8.34a2.627,2.627,0,0,0,4.989,1.631c.039-.1,4.041-10.21,10.453-10.21.772,0,1.259.152,1.448.451.851,1.35-.221,5.771-1.714,8.891a2.627,2.627,0,0,0,4.44,2.753c2.427-3.117,7.176-7.72,9.675-7.72h.01a.972.972,0,0,1,.866.494c.22.289.322,1.175-.115,2.721Z" transform="translate(0)"/></g></svg>